<svg height="512" viewBox="0 0 58 58" width="512" xmlns="http://www.w3.org/2000/svg"><g id="003---Locked-File" fill="none" transform="translate(-1)"><path id="Shape" d="m59 14v42c-.0032948 1.1032019-.8967981 1.9967052-2 2h-33c-1.1032019-.0032948-1.9967052-.8967981-2-2v-54c.0032948-1.10320187.8967981-1.9967052 2-2h21z" fill="#5d4c72"/><path id="Shape" d="m59 14h-12c-1.1032019-.0032948-1.9967052-.8967981-2-2v-12z" fill="#7d6599"/><g fill="#bdc3c7"><path id="Shape" d="m37 13c-.5522847 0-1-.4477153-1-1v-4c0-1.65685425-1.3431458-3-3-3s-3 1.34314575-3 3v4c0 .5522847-.4477153 1-1 1s-1-.4477153-1-1v-4c0-2.76142375 2.2385763-5 5-5s5 2.23857625 5 5v4c0 .5522847-.4477153 1-1 1z"/><path id="Shape" d="m28 29h-1c-.5522847 0-1-.4477153-1-1s.4477153-1 1-1h1c.5522847 0 1 .4477153 1 1s-.4477153 1-1 1z"/><path id="Shape" d="m41 29h-9c-.5522847 0-1-.4477153-1-1s.4477153-1 1-1h9c.5522847 0 1 .4477153 1 1s-.4477153 1-1 1z"/><path id="Shape" d="m54 29h-9c-.5522847 0-1-.4477153-1-1s.4477153-1 1-1h9c.5522847 0 1 .4477153 1 1s-.4477153 1-1 1z"/><path id="Shape" d="m54 38h-9c-.5522847 0-1-.4477153-1-1s.4477153-1 1-1h9c.5522847 0 1 .4477153 1 1s-.4477153 1-1 1z"/><path id="Shape" d="m54 42h-9c-.5522847 0-1-.4477153-1-1s.4477153-1 1-1h9c.5522847 0 1 .4477153 1 1s-.4477153 1-1 1z"/><path id="Shape" d="m54 46h-9c-.5522847 0-1-.4477153-1-1s.4477153-1 1-1h9c.5522847 0 1 .4477153 1 1s-.4477153 1-1 1z"/><path id="Shape" d="m54 50h-9c-.5522847 0-1-.4477153-1-1s.4477153-1 1-1h9c.5522847 0 1 .4477153 1 1s-.4477153 1-1 1z"/><path id="Shape" d="m37 33h-10c-.5522847 0-1-.4477153-1-1s.4477153-1 1-1h10c.5522847 0 1 .4477153 1 1s-.4477153 1-1 1z"/><path id="Shape" d="m54 33h-13c-.5522847 0-1-.4477153-1-1s.4477153-1 1-1h13c.5522847 0 1 .4477153 1 1s-.4477153 1-1 1z"/><path id="Shape" d="m30 55h-3c-.5522847 0-1-.4477153-1-1s.4477153-1 1-1h3c.5522847 0 1 .4477153 1 1s-.4477153 1-1 1z"/><path id="Shape" d="m43 55h-9c-.5522847 0-1-.4477153-1-1s.4477153-1 1-1h9c.5522847 0 1 .4477153 1 1s-.4477153 1-1 1z"/><path id="Shape" d="m54 55h-7c-.5522847 0-1-.4477153-1-1s.4477153-1 1-1h7c.5522847 0 1 .4477153 1 1s-.4477153 1-1 1z"/></g><path id="Shape" d="m19.65 39c-.7424171-.0027327-1.421317-.4193303-1.76-1.08-1.5036762-2.9858054-4.547134-4.883627-7.89-4.92-5.10507896.1460293-9.12993263 4.394486-9 9.5-.12937783 5.1053011 3.89516365 9.3534282 9 9.5 3.342866-.036373 6.3863238-1.9341946 7.89-4.92.338683-.6606697 1.0175829-1.0772673 1.76-1.08h6.94c.533 0 .7-.286 1.7-1.29.3930079-.3899779 1.0269921-.3899779 1.42 0l.58.58c.3930079.3899779 1.0269921.3899779 1.42 0l.58-.58c.3930079-.3899779 1.0269921-.3899779 1.42 0 1.028 1.028 1.179 1.29 1.7 1.29 2.227 0 1.9.092 2.59-.57v-6c-.835-.61 1.151-.43-18.35-.43zm-12.15 6c-1.38071187 0-2.5-1.1192881-2.5-2.5s1.11928813-2.5 2.5-2.5 2.5 1.1192881 2.5 2.5-1.11928813 2.5-2.5 2.5z" fill="#f0c419"/><path id="Shape" d="m19.65 40.11c-.6679865.0299318-1.3140988-.241729-1.76-.74-1.9837215-2.2605234-4.8852944-3.4998518-7.89-3.37-4.357 0-9 2.486-9 6.5 0 4 4.608 6.5 9 6.5 3.0047056.1298518 5.9062785-1.1094766 7.89-3.37.4459012-.498271 1.0920135-.7699318 1.76-.74 7.375 0 7.213.08 7.64-.19l1-.69c.4348338-.2699862.9851662-.2699862 1.42 0l.58.4c.4348338.2699862.9851662.2699862 1.42 0l.58-.4c.4348338-.2699862.9851662-.2699862 1.42 0 .858.592 1.129.88 1.7.88 2.144 0 1.885.08 2.59-.39v-4.1c-.821-.411 1.1-.29-18.35-.29zm-12.15 4.89c-1.38071187 0-2.5-1.1192881-2.5-2.5s1.11928813-2.5 2.5-2.5 2.5 1.1192881 2.5 2.5-1.11928813 2.5-2.5 2.5z" fill="#f3d55b"/><path id="Shape" d="m38 50c-.5522847 0-1-.4477153-1-1v-13c0-.5522847.4477153-1 1-1s1 .4477153 1 1v13c0 .5522847-.4477153 1-1 1z" fill="#3d324c"/><path id="Shape" d="m28 12h10c.5522847 0 1 .4477153 1 1v7c0 1.1045695-.8954305 2-2 2h-8c-1.1045695 0-2-.8954305-2-2v-7c0-.5522847.4477153-1 1-1z" fill="#f3d55b"/><path id="Shape" d="m34 18h-2c-.5522847 0-1-.4477153-1-1s.4477153-1 1-1h2c.5522847 0 1 .4477153 1 1s-.4477153 1-1 1z" fill="#f29c1f"/></g></svg>