<svg height="512" viewBox="0 0 50 58" width="512" xmlns="http://www.w3.org/2000/svg"><g id="005---Budget-Sheet" fill="none"><rect id="Rectangle-path" fill="#cf976a" height="58" rx="4" width="50"/><path id="Shape" d="m46 5v36c-5 5-14 0-14 0 0 9-13 13-13 13h-14c-.55228475 0-1-.4477153-1-1v-48c0-.55228475.44771525-1 1-1h40c.5522847 0 1 .44771525 1 1z" fill="#f9eab0"/><path id="Shape" d="m46 41v12c0 .5522847-.4477153 1-1 1h-23.8c5.69-.17 20.76-1.71 24.8-13z" fill="#e4c05c"/><path id="Shape" d="m38 0v6c-.0032948 1.10320187-.8967981 1.9967052-2 2h-22c-1.1032019-.0032948-1.9967052-.89679813-2-2v-6z" fill="#d1d4d1"/><g fill="#4fba6f"><path id="Shape" d="m7 17c0-2.209139 1.790861-4 4-4s4 1.790861 4 4c0 .5522847-.4477153 1-1 1s-1-.4477153-1-1c0-1.1045695-.8954305-2-2-2s-2 .8954305-2 2 .8954305 2 2 2c.5522847 0 1 .4477153 1 1 0 2.092-5 .814-5-3z"/><path id="Shape" d="m11 27c-2.209139 0-4-1.790861-4-4 0-.5522847.44771525-1 1-1s1 .4477153 1 1c0 1.1045695.8954305 2 2 2s2-.8954305 2-2-.8954305-2-2-2c-.5522847 0-1-.4477153-1-1 0-2.092 5-.814 5 3 0 2.209139-1.790861 4-4 4z"/><path id="Shape" d="m11 16c-.5522847 0-1-.4477153-1-1v-3c0-.5522847.4477153-1 1-1s1 .4477153 1 1v3c0 .5522847-.4477153 1-1 1z"/><path id="Shape" d="m11 29c-.5522847 0-1-.4477153-1-1v-3c0-.5522847.4477153-1 1-1s1 .4477153 1 1v3c0 .5522847-.4477153 1-1 1z"/><path id="Shape" d="m21 16h-2c-.5522847 0-1-.4477153-1-1s.4477153-1 1-1h2c.5522847 0 1 .4477153 1 1s-.4477153 1-1 1z"/><path id="Shape" d="m21 21h-2c-.5522847 0-1-.4477153-1-1s.4477153-1 1-1h2c.5522847 0 1 .4477153 1 1s-.4477153 1-1 1z"/><path id="Shape" d="m21 26h-2c-.5522847 0-1-.4477153-1-1s.4477153-1 1-1h2c.5522847 0 1 .4477153 1 1s-.4477153 1-1 1z"/><path id="Shape" d="m30 16h-2c-.5522847 0-1-.4477153-1-1s.4477153-1 1-1h2c.5522847 0 1 .4477153 1 1s-.4477153 1-1 1z"/><path id="Shape" d="m37 16h-3c-.5522847 0-1-.4477153-1-1s.4477153-1 1-1h3c.5522847 0 1 .4477153 1 1s-.4477153 1-1 1z"/><path id="Shape" d="m42 16h-1c-.5522847 0-1-.4477153-1-1s.4477153-1 1-1h1c.5522847 0 1 .4477153 1 1s-.4477153 1-1 1z"/><path id="Shape" d="m35 21h-7c-.5522847 0-1-.4477153-1-1s.4477153-1 1-1h7c.5522847 0 1 .4477153 1 1s-.4477153 1-1 1z"/><path id="Shape" d="m42 21h-3c-.5522847 0-1-.4477153-1-1s.4477153-1 1-1h3c.5522847 0 1 .4477153 1 1s-.4477153 1-1 1z"/><path id="Shape" d="m32 26h-4c-.5522847 0-1-.4477153-1-1s.4477153-1 1-1h4c.5522847 0 1 .4477153 1 1s-.4477153 1-1 1z"/><path id="Shape" d="m42 26h-6c-.5522847 0-1-.4477153-1-1s.4477153-1 1-1h6c.5522847 0 1 .4477153 1 1s-.4477153 1-1 1z"/></g><path id="Shape" d="m6 33c0 .5522847-.44771525 1-1 1h-1v-2h1c.55228475 0 1 .4477153 1 1z" fill="#b19046"/><path id="Shape" d="m11 34h-2c-.55228475 0-1-.4477153-1-1s.44771525-1 1-1h2c.5522847 0 1 .4477153 1 1s-.4477153 1-1 1z" fill="#b19046"/><path id="Shape" d="m17 34h-2c-.5522847 0-1-.4477153-1-1s.4477153-1 1-1h2c.5522847 0 1 .4477153 1 1s-.4477153 1-1 1z" fill="#b19046"/><path id="Shape" d="m23 34h-2c-.5522847 0-1-.4477153-1-1s.4477153-1 1-1h2c.5522847 0 1 .4477153 1 1s-.4477153 1-1 1z" fill="#b19046"/><path id="Shape" d="m29 34h-2c-.5522847 0-1-.4477153-1-1s.4477153-1 1-1h2c.5522847 0 1 .4477153 1 1s-.4477153 1-1 1z" fill="#b19046"/><path id="Shape" d="m35 34h-2c-.5522847 0-1-.4477153-1-1s.4477153-1 1-1h2c.5522847 0 1 .4477153 1 1s-.4477153 1-1 1z" fill="#b19046"/><path id="Shape" d="m41 34h-2c-.5522847 0-1-.4477153-1-1s.4477153-1 1-1h2c.5522847 0 1 .4477153 1 1s-.4477153 1-1 1z" fill="#b19046"/><path id="Shape" d="m46 32v2h-1c-.5522847 0-1-.4477153-1-1s.4477153-1 1-1z" fill="#b19046"/><path id="Shape" d="m18 5v3h-2v-3c0-.55228475.4477153-1 1-1s1 .44771525 1 1z" fill="#7f8284"/><path id="Shape" d="m34 5v3h-2v-3c0-.55228475.4477153-1 1-1s1 .44771525 1 1z" fill="#7f8284"/><path id="Shape" d="m31 48h-21c-1.1045695 0-2-.8954305-2-2v-2c0-1.1045695.8954305-2 2-2h23z" fill="#e4c05c"/><path id="Shape" d="m46 41c-4.04 11.29-19.11 12.83-24.8 13h-2.2s12.99-4 13-12.99c0 0 9 4.99 14-.01z" fill="#f3d55b"/></g></svg>