<svg height="512" viewBox="0 0 58 58" width="512" xmlns="http://www.w3.org/2000/svg"><g id="006---Succesfull-Candidate" fill="none"><path id="Shape" d="m58 24v10c-.0032948 1.1032019-.8967981 1.9967052-2 2h-22c-1.1032019-.0032948-1.9967052-.8967981-2-2v-10z" fill="#95a5a5"/><path id="Shape" d="m43 33h-7c-.5522847 0-1-.4477153-1-1s.4477153-1 1-1h7c.5522847 0 1 .4477153 1 1s-.4477153 1-1 1z" fill="#56595e"/><path id="Shape" d="m54 33h-7c-.5522847 0-1-.4477153-1-1s.4477153-1 1-1h7c.5522847 0 1 .4477153 1 1s-.4477153 1-1 1z" fill="#56595e"/><path id="Shape" d="m26 25v9c-.0032948 1.1032019-.8967981 1.9967052-2 2h-22c-1.10320187-.0032948-1.9967052-.8967981-2-2v-9z" fill="#95a5a5"/><path id="Shape" d="m11 33h-7c-.55228475 0-1-.4477153-1-1s.44771525-1 1-1h7c.5522847 0 1 .4477153 1 1s-.4477153 1-1 1z" fill="#56595e"/><path id="Shape" d="m22 33h-7c-.5522847 0-1-.4477153-1-1s.4477153-1 1-1h7c.5522847 0 1 .4477153 1 1s-.4477153 1-1 1z" fill="#56595e"/><path id="Shape" d="m26 2v26h-26v-26c.0032948-1.10320187.89679813-1.9967052 2-2h22c1.1032019.0032948 1.9967052.89679813 2 2z" fill="#3b97d3"/><path id="Shape" d="m9.4 13.32c-2.63729102 1.8041849-4.26826251 4.7473471-4.4 7.94 2.22301759 1.8942496 5.082443 2.8736028 8 2.74 2.917557.1336028 5.7769824-.8457504 8-2.74-.1317375-3.1926529-1.762709-6.1358151-4.4-7.94z" fill="#41767f"/><path id="Shape" d="m13 18c-.5522847 0-1-.4477153-1-1v-1c0-.5522847.4477153-1 1-1s1 .4477153 1 1v1c0 .5522847-.4477153 1-1 1z" fill="#f3d55b"/><path id="Shape" d="m13 22c-.5522847 0-1-.4477153-1-1v-1c0-.5522847.4477153-1 1-1s1 .4477153 1 1v1c0 .5522847-.4477153 1-1 1z" fill="#f3d55b"/><path id="Shape" d="m58 2v26h-26v-26c.0032948-1.10320187.8967981-1.9967052 2-2h22c1.1032019.0032948 1.9967052.89679813 2 2z" fill="#7d6599"/><path id="Shape" d="m41.4 13.32c-2.637291 1.8041849-4.2682625 4.7473471-4.4 7.94 2.2230176 1.8942496 5.082443 2.8736028 8 2.74 2.917557.1336028 5.7769824-.8457504 8-2.74-.1317375-3.1926529-1.762709-6.1358151-4.4-7.94z" fill="#3d324c"/><path id="Shape" d="m45 18c-.5522847 0-1-.4477153-1-1v-1c0-.5522847.4477153-1 1-1s1 .4477153 1 1v1c0 .5522847-.4477153 1-1 1z" fill="#f3d55b"/><path id="Shape" d="m45 22c-.5522847 0-1-.4477153-1-1v-1c0-.5522847.4477153-1 1-1s1 .4477153 1 1v1c0 .5522847-.4477153 1-1 1z" fill="#f3d55b"/><circle id="Oval" cx="13" cy="49" fill="#e64c3c" r="9"/><path id="Shape" d="m16 53c-.2651948-.0000566-.5195073-.1054506-.707-.293l-6-6c-.37897221-.3923789-.37355237-1.0160848.01218142-1.4018186.3857338-.3857338 1.00943968-.3911536 1.40181858-.0121814l6 6c.2859079.2859943.3714219.7160366.216678 1.0896546-.1547439.3736179-.5192821.6172591-.923678.6173454z" fill="#fff"/><path id="Shape" d="m10 53c-.4043959-.0000863-.76893405-.2437275-.92367798-.6173454-.15474393-.373618-.06922994-.8036603.21667798-1.0896546l6-6c.3923789-.3789722 1.0160848-.3735524 1.4018186.0121814s.3911536 1.0094397.0121814 1.4018186l-6 6c-.1874927.1875494-.4418052.2929434-.707.293z" fill="#fff"/><circle id="Oval" cx="45" cy="49" fill="#4fba6f" r="9"/><path id="Shape" d="m43 54c-.543 0-.565-.151-2.707-2.293-.3789722-.3923789-.3735524-1.0160848.0121814-1.4018186s1.0094397-.3911536 1.4018186-.0121814l1.185 1.185 5.308-7.078c.3313709-.4418278.9581722-.5313708 1.4-.2.4418278.3313709.5313708.9581722.2 1.4l-6 8c-.1888544.2518058-.4852427.4-.8.4z" fill="#fff"/><g fill="#fdd7ad"><ellipse id="Oval" cx="13" cy="9.5" rx="5" ry="5.5"/><ellipse id="Oval" cx="45" cy="9.5" rx="5" ry="5.5"/></g></g></svg>