<svg height="512" viewBox="0 0 58 58" width="512" xmlns="http://www.w3.org/2000/svg"><g id="011---Budget-Report" fill="none"><path id="Shape" d="m40 4c0-2.209139-1.790861-4-4-4h-32c-2.209139 0-4 1.790861-4 4v50c0 2.209139 1.790861 4 4 4h32c.6827799-.0015136 1.3539063-.177039 1.95-.51 2.46-37.631 2.05-25.62 2.05-53.49z" fill="#2980ba"/><path id="Shape" d="m38 4c.1049943-2.09674507-1.5038177-3.8843139-3.6-4h-28.8c-2.09618235.1156861-3.70499429 1.90325493-3.6 4v50c-.10499429 2.0967451 1.50381765 3.8843139 3.6 4h28.8c.6210458-.0034763 1.2288144-.1800929 1.755-.51 2.214-37.634 1.845-25.62 1.845-53.49z" fill="#3b97d3"/><rect id="Rectangle-path" fill="#26b99a" height="10" rx="1" width="32" x="4" y="5"/><g fill="#67b9cc"><rect id="Rectangle-path" height="5" rx="1" width="5" x="4" y="19"/><rect id="Rectangle-path" height="5" rx="1" width="5" x="13" y="19"/><rect id="Rectangle-path" height="5" rx="1" width="5" x="22" y="19"/><rect id="Rectangle-path" height="5" rx="1" width="5" x="31" y="19"/><rect id="Rectangle-path" height="5" rx="1" width="5" x="4" y="29"/><rect id="Rectangle-path" height="5" rx="1" width="5" x="13" y="29"/><rect id="Rectangle-path" height="5" rx="1" width="5" x="22" y="29"/><rect id="Rectangle-path" height="5" rx="1" width="5" x="4" y="39"/><rect id="Rectangle-path" height="5" rx="1" width="5" x="13" y="39"/><path id="Shape" d="m26.27 39.04c-.152-.057-.019-.04-3.27-.04-.5522847 0-1 .4477153-1 1v3c0 .5522847.4477153 1 1 1 2.6 0 3.019.015 3.12-.01"/><rect id="Rectangle-path" height="5" rx="1" width="5" x="4" y="49"/><rect id="Rectangle-path" height="5" rx="1" width="5" x="13" y="49"/><rect id="Rectangle-path" height="5" rx="1" width="5" x="22" y="49"/></g><path id="Shape" d="m24 10c-.5522847 0-1-.44771525-1-1v-1c0-.55228475.4477153-1 1-1s1 .44771525 1 1v1c0 .55228475-.4477153 1-1 1z" fill="#3f5c6c"/><path id="Shape" d="m24 13c-.5522847 0-1-.4477153-1-1v-1c0-.5522847.4477153-1 1-1s1 .4477153 1 1v1c0 .5522847-.4477153 1-1 1z" fill="#3f5c6c"/><path id="Shape" d="m28 10c-.5522847 0-1-.44771525-1-1v-1c0-.55228475.4477153-1 1-1s1 .44771525 1 1v1c0 .55228475-.4477153 1-1 1z" fill="#3f5c6c"/><path id="Shape" d="m28 13c-.5522847 0-1-.4477153-1-1v-1c0-.5522847.4477153-1 1-1s1 .4477153 1 1v1c0 .5522847-.4477153 1-1 1z" fill="#3f5c6c"/><path id="Shape" d="m32 10c-.5522847 0-1-.44771525-1-1v-1c0-.55228475.4477153-1 1-1s1 .44771525 1 1v1c0 .55228475-.4477153 1-1 1z" fill="#3f5c6c"/><path id="Shape" d="m32 13c-.5522847 0-1-.4477153-1-1v-1c0-.5522847.4477153-1 1-1s1 .4477153 1 1v1c0 .5522847-.4477153 1-1 1z" fill="#3f5c6c"/><path id="Shape" d="m31.76 29.7c-3.6198375 3.0161236-5.7268794 7.4739469-5.759639 12.1855444-.0327596 4.7115976 2.0120915 9.1982889 5.589639 12.2644556 10.368 8.887 26.41 1.442 26.41-12.15 0-13.469-15.807-21-26.24-12.3z" fill="#f29c1f"/><path id="Shape" d="m43.77 57.9c-4.4046735.4965127-8.8173361-.8620657-12.18-3.75l10.41-12.15z" fill="#f0c419"/><path id="Shape" d="m58.0000009 42c.002734 8.1523062-6.1273284 15.0017786-14.2300009 15.9l-1.77-15.9z" fill="#4fba6f"/><path id="Shape" d="m58.0000174 42h-16.0000174l10.41-12.15c3.5535545 3.0353188 5.5968998 7.4765792 5.5900174 12.15z" fill="#4482c3"/><path id="Shape" d="m52.41 29.85-10.41 12.15-10.24-12.3c5.9993341-4.9912026 14.7238065-4.9278287 20.65.15z" fill="#cc4b4c"/></g></svg>