<svg height="512" viewBox="0 0 60 58" width="512" xmlns="http://www.w3.org/2000/svg"><g id="014---Dollar-Up" fill="none"><path id="Shape" d="m34 26.55v-4.55h3.9c.195349-.0021901.3715303-.1179544.4510734-.296389s.0478773-.3868536-.0810734-.533611l-5.27-6v-4.75c3.43.97 5.99 3.57 6.39 6.72.0655392.4914559.4841946.8588474.98.86h4.03c.2835733-.0038517.5526859-.1258202.7425088-.3365236.1898228-.2107034.2831472-.4910398.2574912-.7734764-.55-6.29-5.71-11.42-12.4-12.62v-3.27c0-.55228475-.4477153-1-1-1h-4c-.5522847 0-1 .44771525-1 1v3.26c-7.09 1.27-12.44 6.95-12.44 13.74.073631 4.2780047 2.1460256 8.2747659 5.6 10.8 1.7408705 1.2678807 3.7316292 2.1507686 5.84 2.59v7.61c0 .5522847.4477153 1 1 1v3h-1c-.5522847 0-1 .4477153-1 1s.4477153 1 1 1h1v2.58c-3.43-.97-5.99-3.57-6.39-6.72-.0655392-.4914559-.4841946-.8588474-.98-.86h-4.03c-.2835733.0038517-.5526859.1258202-.7425088.3365236-.1898228.2107034-.2831472.4910398-.2574912.7734764.55 6.29 5.71 11.42 12.4 12.62v3.27c0 .5522847.4477153 1 1 1h4c.5522847 0 1-.4477153 1-1v-3.26c7.09-1.27 12.44-6.95 12.44-13.74 0-6.51-5.149-12.2-11.44-13.45zm-11.83-5.38c-.1289507.1467574-.1606165.3551764-.0810734.533611s.2557244.2941989.4510734.296389h3.46v3.16c-.8022914-.2727203-1.5578092-.6673434-2.24-1.17-5.437-4.078-3.648-11.618 3.24-13.57v5.25zm10.83 26.41v-2.58h1c.5522847 0 1-.4477153 1-1s-.4477153-1-1-1h-1v-3c.5522847 0 1-.4477153 1-1v-6.23c.1606738.0529306.3176813.1164017.47.19 2.8823528 1.1834996 4.8197067 3.9277595 4.97 7.04 0 3.52-2.7 6.52-6.44 7.58z" fill="#4fba6f"/><g fill="#4c8056"><path id="Shape" d="m45.4 16.89c.025656.2824366-.0676684.562773-.2574912.7734764-.1898229.2107034-.4589355.3326719-.7425088.3365236h-4.03c-.4958054-.0011526-.9144608-.3685441-.98-.86-.4-3.15-2.96-5.75-6.39-6.72v4.75l-3 .25v-15.42h2c.5522847 0 1 .44771525 1 1v3.27c6.69 1.2 11.85 6.33 12.4 12.62z"/><path id="Shape" d="m45.44 40c0 6.79-5.35 12.47-12.44 13.74v3.26c0 .5522847-.4477153 1-1 1h-2v-18h3v7.58c3.74-1.06 6.44-4.06 6.44-7.58-.1502933-3.1122405-2.0876472-5.8565004-4.97-7.04-.1523187-.0735983-.3093262-.1370694-.47-.19v-6.22c6.277 1.242 11.44 6.926 11.44 13.45z"/><path id="Shape" d="m59 52h-7c-.5522847 0-1-.4477153-1-1s.4477153-1 1-1h7c.5522847 0 1 .4477153 1 1s-.4477153 1-1 1z"/><path id="Shape" d="m48 52h-2c-.5522847 0-1-.4477153-1-1s.4477153-1 1-1h2c.5522847 0 1 .4477153 1 1s-.4477153 1-1 1z"/><path id="Shape" d="m59 57h-16c-.5522847 0-1-.4477153-1-1s.4477153-1 1-1h16c.5522847 0 1 .4477153 1 1s-.4477153 1-1 1z"/><path id="Shape" d="m8 52h-7c-.55228475 0-1-.4477153-1-1s.44771525-1 1-1h7c.55228475 0 1 .4477153 1 1s-.44771525 1-1 1z"/><path id="Shape" d="m14 52h-2c-.5522847 0-1-.4477153-1-1s.4477153-1 1-1h2c.5522847 0 1 .4477153 1 1s-.4477153 1-1 1z"/><path id="Shape" d="m17 57h-16c-.55228475 0-1-.4477153-1-1s.44771525-1 1-1h16c.5522847 0 1 .4477153 1 1s-.4477153 1-1 1z"/></g><path id="Shape" d="m34 45h-8c-.5522847 0-1-.4477153-1-1s.4477153-1 1-1h8c.5522847 0 1 .4477153 1 1s-.4477153 1-1 1z" fill="#c03a2b"/><path id="Shape" d="m30 12.31v27.69h-3c-.5522847 0-1-.4477153-1-1v-17h-3.46c-.195349-.0021901-.3715303-.1179544-.4510734-.296389s-.0478773-.3868536.0810734-.533611c8.223-9.363 7.675-8.782 7.83-8.86z" fill="#e64c3c"/><path id="Shape" d="m37.9 22h-3.9v17c0 .5522847-.4477153 1-1 1h-3v-27.69c.2039869-.1013301.4506775-.051992.6.12 3.028 3.457 1.273 1.457 7.67 8.74.1289507.1467574.1606165.3551764.0810734.533611s-.2557244.2941989-.4510734.296389z" fill="#c03a2b"/></g></svg>