<svg height="512" viewBox="0 0 58 58" width="512" xmlns="http://www.w3.org/2000/svg"><g id="016---Travel-Expenses" fill="none" fill-rule="evenodd"><g fill-rule="nonzero"><path id="Shape" d="m5 52h10v4c0 1.1045695-.8954305 2-2 2h-6c-1.1045695 0-2-.8954305-2-2z" fill="#805333"/><path id="Shape" d="m43 52h10v4c0 1.1045695-.8954305 2-2 2h-6c-1.1045695 0-2-.8954305-2-2z" fill="#805333"/><path id="Shape" d="m37 12v-7c0-.55228475-.4477153-1-1-1h-14c-.5522847 0-1 .44771525-1 1v7h-4v-8c0-2.209139 1.790861-4 4-4h16c2.209139 0 4 1.790861 4 4v8z" fill="#805333"/><rect id="Rectangle-path" fill="#805333" height="44" rx="4" width="58" y="10"/><rect id="Rectangle-path" fill="#a56a43" height="44" rx="4" width="54" x="2" y="10"/><path id="Rectangle-path" d="m9 21h6v33h-6z" fill="#f0c419"/><path id="Shape" d="m42 14.52v-4.52h6v4.24z" fill="#f3d55b"/><path id="Shape" d="m42 40.14v13.86h6v-19.86z" fill="#f0c419"/><path id="Shape" d="m53.71 14.29-3.9 3.9c.2990639.2936303.4954515.6758847.56 1.09.1430579.8583686-.2853329 1.7107284-1.0595166 2.108097-.7741836.3973686-1.7164602.2485372-2.3304834-.368097l-21.92 21.92 2.83 2.83c2.3425404 2.339627 6.1374596 2.339627 8.48 0l16.7-16.7c.383-.362.236.477.91-13.7.0868879-.3824529-.0133563-.78343-.27-1.08z" fill="#24ae5f"/><path id="Shape" d="m53.71 14.29-3.9 3.9c-.1843688-.182336-.4015048-.3282243-.64-.43-.8823548-.3736668-1.905761-.0690085-2.4400952.7263931s-.4294412 1.8580278.2500952 2.5336069l-21.92 21.92-2.83-2.83c-2.339627-2.3425404-2.339627-6.1374596 0-8.48l16.7-16.7c.366-.387-.394-.239 13.53-.91.611-.02.909-.071 1.25.27z" fill="#4fba6f"/><path id="Shape" d="m44.811 24.6.754-.755c.2599566-.2510745.3642126-.6228779.2726972-.9725073-.0915155-.3496295-.3645604-.6226744-.7141899-.7141899-.3496294-.0915154-.7214328.0127406-.9725073.2726972l-.755.756c-2.689-2.1-6.3-2.182-8.437-.049s-2.05 5.747.049 8.437l-5.649 5.649c-1.254-1.74-1.5-4.155-.056-5.6.2599566-.2510745.3642126-.6228779.2726972-.9725073-.0915155-.3496295-.3645604-.6226744-.7141899-.7141899-.3496294-.0915154-.7214328.0127406-.9725073.2726972-2.216 2.215-2 5.825.047 8.438l-.754.755c-.3910176.3915699-.3905699 1.0259824.001 1.417s1.0259824.3905699 1.417-.001l.755-.756c1.2757021 1.0207922 2.8543691 1.5888732 4.488 1.615 5.078 0 7.264-5.691 3.9-10l5.649-5.649c1.254 1.74 1.5 4.154.056 5.6-.2527654.2525868-.3515768.6208353-.259213.96603.0923639.3451946.3618707.6148921.707.7075s.7134476-.0059432.966213-.25853c2.212-2.219 1.994-5.828-.051-8.444zm-8.438-.048c1.366-1.364 3.725-1.291 5.6.058l-5.542 5.542c-1.35-1.871-1.424-4.231-.058-5.597zm0 14.143c-1.368 1.366-3.726 1.291-5.6-.057l5.543-5.538c1.35 1.873 1.424 4.231.058 5.6z" fill="#4c8056"/><path id="Shape" d="m55.16 11.8c-.2 2.866-2.328 5.694-4.6 7.37-.0573734.0461119-.1214432.0832049-.19.11-.1105883-.6799344-.5642959-1.2546307-1.2-1.52.156-.218 3.726-2.6 4-6.11.0957998-1.3501218-.4265545-2.6707218-1.42-3.59-.9601314-1.07741037-2.3875669-1.61550124-3.82-1.44-1.9847242.41652025-3.706053 1.64138163-4.75 3.38h-2.18c-.0007919-.17512415.04401-.34743915.13-.5 1.3347665-2.52403108 3.7382269-4.3100888 6.54-4.86 1.9800287-.18829257 3.9441315.49332393 5.3818551 1.86770323 1.4377236 1.37437931 2.2070891 3.30579792 2.1081449 5.29229677z" fill="#4c8056"/><path id="Shape" d="m15 23-1.4 1.867c-.3777088.5036117-.9704854.8-1.6.8s-1.2222912-.2963883-1.6-.8l-1.4-1.867v-11h6z" fill="#b19046"/></g><path id="Shape" d="m54.5 13.5-.79.79"/><path id="Shape" d="m49.81 18.19-2.83 2.83"/><path id="Shape" d="m15 21-1.4 1.867c-.3777088.5036117-.9704854.8-1.6.8s-1.2222912-.2963883-1.6-.8l-1.4-1.867v-11h6z" fill="#f3d55b" fill-rule="nonzero"/></g></svg>