<svg height="512" viewBox="0 0 58 58" width="512" xmlns="http://www.w3.org/2000/svg"><g id="019---Time-Management" fill="none"><path id="Shape" d="m4.46 33.79-3.83-1.54c-.38072104-.1516273-.63039671-.5201962-.63-.93v-4.64c-.00039671-.4098038.24927896-.7783727.63-.93l3.83-1.54 3.8-9.18-1.62-3.79c-.1611245-.375155-.07799669-.8105864.21-1.1l3.29-3.29c.2894136-.28799669.724845-.3711245 1.1-.21l3.79 1.62 9.18-3.8 1.54-3.83c.1516273-.38072104.5201962-.63039671.93-.63h4.64c.4098038-.00039671.7783727.24927896.93.63l1.54 3.83 9.18 3.8 3.79-1.62c.375155-.1611245.8105864-.07799669 1.1.21l3.29 3.29c.2879967.2894136.3711245.724845.21 1.1l-1.62 3.79 3.8 9.18 3.83 1.54c.380721.1516273.6303967.5201962.63.93v4.64c.0003967.4098038-.249279.7783727-.63.93l-3.83 1.54-3.8 9.18 1.62 3.79c.1611245.375155.0779967.8105864-.21 1.1l-3.29 3.29c-.2894136.2879967-.724845.3711245-1.1.21l-3.79-1.62-9.18 3.8-1.54 3.83c-.1516273.380721-.5201962.6303967-.93.63h-4.64c-.4098038.0003967-.7783727-.249279-.93-.63l-1.54-3.83-9.18-3.8-3.79 1.62c-.375155.1611245-.8105864.0779967-1.1-.21l-3.29-3.29c-.28799669-.2894136-.3711245-.724845-.21-1.1l1.62-3.79z" fill="#4482c3"/><circle id="Oval" cx="29" cy="29" fill="#285680" r="25"/><path id="Shape" d="m38.59 10.32c-9.98 3.21-23.58 10.8-28.07 28.67-4.3698784-8.0979547-2.96085219-18.0973377 3.4766223-24.6724141 6.4374745-6.57507636 16.4048252-8.1952418 24.5933777-3.9975859z" fill="#67b9cc"/><path id="Shape" d="m50 29c-.0019305 9.6145625-6.5315145 18.0004504-15.8523062 20.3589791-9.3207918 2.3585286-19.0530672-1.9124664-23.6276938-10.3689791 4.49-17.87 18.09-25.46 28.07-28.67 7.0074153 3.592133 11.4134571 10.8055301 11.41 18.68z" fill="#2fa8cc"/><path id="Shape" d="m29 51c-12.1502645 0-22-9.8497355-22-22s9.8497355-22 22-22 22 9.8497355 22 22c-.0137772 12.1445532-9.8554468 21.9862228-22 22zm0-42c-11.045695 0-20 8.954305-20 20s8.954305 20 20 20 20-8.954305 20-20c-.0126747-11.0404407-8.9595593-19.98732534-20-20z" fill="#b0d3f0"/><path id="Shape" d="m29 14c-.5522847 0-1-.4477153-1-1v-2c0-.5522847.4477153-1 1-1s1 .4477153 1 1v2c0 .5522847-.4477153 1-1 1z" fill="#f3d55b"/><g fill="#285680"><path id="Shape" d="m20.5 15.277c-.3576137.0003484-.6881932-.1902972-.867-.5l-.5-.865c-.1814844-.3095704-.1831833-.6926495-.0044519-1.0038174.1787315-.311168.5104885-.5027136.8693336-.5019247s.6897567.1937913.8671183.5057421l.5.865c.1785415.3092425.1786393.6902222.0002566.9995563s-.5081742.5000777-.8652566.5004437z"/><path id="Shape" d="m38 45.588c-.3576137.0003484-.6881932-.1902972-.867-.5l-.5-.865c-.1814844-.3095704-.1831833-.6926495-.0044519-1.0038174.1787315-.311168.5104885-.5027136.8693336-.5019247s.6897567.1937913.8671183.5057421l.5.865c.1785415.3092425.1786393.6902222.0002566.9995563s-.5081742.5000777-.8652566.5004437z"/><path id="Shape" d="m14.276 21.5c-.37 0-.552-.165-1.365-.634-.4742136-.2780058-.6351286-.886647-.3602745-1.3626943.274854-.4760473.8824145-.640996 1.3602745-.3693057l.866.5c.3921027.2264067.5831589.6880184.4657522 1.1253057s-.5139782.7411275-.9667522.7406943z"/><path id="Shape" d="m44.588 39c-.371 0-.553-.165-1.365-.634-.3119508-.1773616-.5049532-.5082732-.5057421-.8671183s.1907567-.6906021.5019247-.8693336c.3111679-.1787314.694247-.1770325 1.0038174.0044519l.866.5c.3921027.2264067.5831589.6880184.4657522 1.1253057s-.5139782.7411275-.9667522.7406943z"/><path id="Shape" d="m13.412 39c-.4525881-.0000199-.8487411-.3040116-.9658809-.7411777-.1171399-.4371661.0739396-.8985084.4658809-1.1248223l.866-.5c.3095704-.1814844.6926495-.1831833 1.0038174-.0044519.311168.1787315.5027136.5104885.5019247.8693336s-.1937913.6897567-.5057421.8671183c-.939.542-1.031.634-1.366.634z"/><path id="Shape" d="m43.724 21.5c-.4525881-.0000199-.8487411-.3040116-.9658809-.7411777-.1171399-.4371661.0739396-.8985084.4658809-1.1248223l.866-.5c.47786-.2716903 1.0854205-.1067416 1.3602745.3693057.2748541.4760473.1139391 1.0846885-.3602745 1.3626943-.939.542-1.031.634-1.366.634z"/><path id="Shape" d="m20 45.588c-.3570824-.000366-.6868739-.1911096-.8652566-.5004437s-.1782849-.6903138.0002566-.9995563l.5-.865c.2780058-.4742136.886647-.6351286 1.3626943-.3602745.4760473.274854.640996.8824145.3693057 1.3602745l-.5.865c-.1788068.3097028-.5093863.5003484-.867.5z"/><path id="Shape" d="m37.5 15.277c-.3570824-.000366-.6868739-.1911096-.8652566-.5004437s-.1782849-.6903138.0002566-.9995563l.5-.865c.2780058-.4742136.886647-.6351286 1.3626943-.3602745.4760473.274854.640996.8824145.3693057 1.3602745l-.5.865c-.1788068.3097028-.5093863.5003484-.867.5z"/></g><path id="Shape" d="m29 48c-.5522847 0-1-.4477153-1-1v-2c0-.5522847.4477153-1 1-1s1 .4477153 1 1v2c0 .5522847-.4477153 1-1 1z" fill="#f3d55b"/><path id="Shape" d="m47 30h-2c-.5522847 0-1-.4477153-1-1s.4477153-1 1-1h2c.5522847 0 1 .4477153 1 1s-.4477153 1-1 1z" fill="#f3d55b"/><path id="Shape" d="m13 30h-2c-.5522847 0-1-.4477153-1-1s.4477153-1 1-1h2c.5522847 0 1 .4477153 1 1s-.4477153 1-1 1z" fill="#f3d55b"/><path id="Shape" d="m40 40c-.56 0 .048.4-9.453-8.25-.4086907-.3716876-.4386876-1.0043093-.067-1.413.3716877-.4086907 1.0043093-.4386876 1.413-.067l8.78 7.99c.3057876.2779389.4091269.7153359.2600602 1.1007385-.1490666.3854027-.5198338.639424-.9330602.6392615z" fill="#35495e"/><path id="Shape" d="m29 27c-.5522847 0-1-.4477153-1-1v-9c0-.5522847.4477153-1 1-1s1 .4477153 1 1v9c0 .5522847-.4477153 1-1 1z" fill="#35495e"/><path id="Shape" d="m22 37c-.4043959-.0000863-.7689341-.2437275-.923678-.6173454-.1547439-.373618-.0692299-.8036603.216678-1.0896546l4.88-4.88c.2510745-.2599566.6228779-.3642126.9725073-.2726972.3496295.0915155.6226744.3645604.7141899.7141899.0915154.3496294-.0127406.7214328-.2726972.9725073l-4.88 4.88c-.1874927.1875494-.4418052.2929434-.707.293z" fill="#35495e"/><circle id="Oval" cx="29" cy="29" fill="#9fc9d3" r="3"/></g></svg>