<svg height="512" viewBox="0 0 58 59" width="512" xmlns="http://www.w3.org/2000/svg"><g id="034---Health-Report" fill="none"><path id="Shape" d="m42 26v-18c0-2.209139-1.790861-4-4-4h-34c-2.209139 0-4 1.790861-4 4v46c0 2.209139 1.790861 4 4 4 37.121 0 34.41.1 35.31-.23z" fill="#a56a43"/><path id="Shape" d="m40 26v-18c.1003108-2.10217742-1.5173026-3.89008952-3.619-4h-30.762c-2.10169737.10991048-3.71931084 1.89782258-3.619 4v46c-.10031084 2.1021774 1.51730263 3.8900895 3.619 4 33.682 0 31.135.1 31.947-.23z" fill="#cb8252"/><path id="Shape" d="m38 26.5v-18.5h-34v46h27.41z" fill="#f9eab0"/><path id="Shape" d="m32 3h-4c0-1.657-3.134-3-7-3s-7 1.343-7 3h-4c-.55228475 0-1 .44771525-1 1v6c0 .5522847.44771525 1 1 1h22c.5522847 0 1-.4477153 1-1v-6c0-.55228475-.4477153-1-1-1z" fill="#95a5a5"/><g fill="#ecf0f1"><path id="Shape" d="m13.02 8c-.5522847 0-1-.44771525-1-1s.4477153-1 1-1 1 .44771525 1 1-.4477153 1-1 1z"/><path id="Shape" d="m21.02 8c-.5522847 0-1-.44771525-1-1s.4477153-1 1-1 1 .44771525 1 1-.4477153 1-1 1z"/><path id="Shape" d="m29.02 8c-.5522847 0-1-.44771525-1-1s.4477153-1 1-1 1 .44771525 1 1-.4477153 1-1 1z"/></g><path id="Shape" d="m17.9 21.12-4.511 4.51-4.51-4.51c-.8570093-.8580761-1.11309699-2.1477392-.64895582-3.2681554.46414118-1.1204163 1.55720724-1.8511819 2.76995582-1.8518446.7966344-.0041426 1.5612861.3131103 2.121.88l.269.27.271-.27c.5592772-.5669287 1.3236449-.8842135 2.12-.88 1.2123847.0014701 2.3047116.7325317 2.7683403 1.8527671.4636286 1.1202353.2074131 2.4094145-.6493403 3.2672329z" fill="#ff5364"/><path id="Shape" d="m32 18h-9c-.5522847 0-1-.4477153-1-1s.4477153-1 1-1h9c.5522847 0 1 .4477153 1 1s-.4477153 1-1 1z" fill="#606060"/><path id="Shape" d="m32 22h-9c-.5522847 0-1-.4477153-1-1s.4477153-1 1-1h9c.5522847 0 1 .4477153 1 1s-.4477153 1-1 1z" fill="#606060"/><path id="Shape" d="m32 26h-11c-.5522847 0-1-.4477153-1-1s.4477153-1 1-1h11c.5522847 0 1 .4477153 1 1s-.4477153 1-1 1z" fill="#606060"/><path id="Shape" d="m17.9 36.12-4.511 4.51-4.51-4.51c-.8570093-.8580761-1.11309699-2.1477392-.64895582-3.2681554.46414118-1.1204163 1.55720724-1.8511819 2.76995582-1.8518446.7966344-.0041426 1.5612861.3131103 2.121.88l.269.27.271-.27c.5592772-.5669287 1.3236449-.8842135 2.12-.88 1.2123847.0014701 2.3047116.7325317 2.7683403 1.8527671.4636286 1.1202353.2074131 2.4094145-.6493403 3.2672329z" fill="#ff5364"/><path id="Shape" d="m29.51 33h-6.51c-.5522847 0-1-.4477153-1-1s.4477153-1 1-1h6.51c.5522847 0 1 .4477153 1 1s-.4477153 1-1 1z" fill="#606060"/><path id="Shape" d="m27.17 37h-4.17c-.5522847 0-1-.4477153-1-1s.4477153-1 1-1h4.17c.5522847 0 1 .4477153 1 1s-.4477153 1-1 1z" fill="#606060"/><path id="Shape" d="m26.13 41h-5.13c-.5522847 0-1-.4477153-1-1s.4477153-1 1-1h5.13c.5522847 0 1 .4477153 1 1s-.4477153 1-1 1z" fill="#606060"/><path id="Shape" d="m31.76 29.7c-3.6198375 3.0161236-5.7268794 7.4739469-5.759639 12.1855444-.0327596 4.7115976 2.0120915 9.1982889 5.589639 12.2644556 10.368 8.887 26.41 1.442 26.41-12.15 0-13.469-15.807-21-26.24-12.3z" fill="#f29c1f"/><path id="Shape" d="m52.41 29.85-10.41 12.15-10.24-12.3c5.9993341-4.9912026 14.7238065-4.9278287 20.65.15z" fill="#cc4b4c"/><path id="Shape" d="m43.77 57.9c-4.4046735.4965127-8.8173361-.8620657-12.18-3.75l10.41-12.15z" fill="#f0c419"/><path id="Shape" d="m58.0000009 42c.002734 8.1523062-6.1273284 15.0017786-14.2300009 15.9l-1.77-15.9z" fill="#4fba6f"/><path id="Shape" d="m58.0000174 42h-16.0000174l10.41-12.15c3.5535545 3.0353188 5.5968998 7.4765792 5.5900174 12.15z" fill="#4482c3"/></g></svg>