<svg height="512" viewBox="0 0 48 60" width="512" xmlns="http://www.w3.org/2000/svg"><g id="038---Medilcal-Ledger" fill="none"><path id="Shape" d="m47 4v12c0-1.6568542-1.3431458-3-3-3h-37c-3.31370846 0-5.99999991-2.6862915-5.99999991-6 0-3.31370846 2.68629145-5.99999995 5.99999991-6h37c1.6568542 0 3 1.34314575 3 3z" fill="#f5efca"/><path id="Shape" d="m47.96 15.47c-.1596675-1.2239451-.8806399-2.3035551-1.95-2.92 0-.0055228-.0044772-.01-.01-.01-.4535377-.2510898-.9477529-.4203416-1.46-.5-.978-.151-37.294.087-38.36-.11-2.41449432-.3946597-4.18553441-2.48347012-4.18-4.93 0 .55228475-.44771525 1-1 1s-1-.44771525-1-1v46c.00440864 3.8641657 3.13583434 6.9955914 7 7h37c2.209139 0 4-1.790861 4-4 0-42.807.022-40.156-.04-40.53z" fill="#ff5364"/><path id="Shape" d="m9 12h-2c-2.76005315-.0033061-4.99669388-2.23994685-5-5 0-.35726559-.19059892-.68739261-.5-.8660254-.30940108-.1786328-.69059892-.1786328-1 0-.30940108.17863279-.5.50875981-.5.8660254v46c.00440864 3.8641657 3.13583434 6.9955914 7 7h2c.55228475 0 1-.4477153 1-1v-46c0-.5522847-.44771525-1-1-1z" fill="#df4d60"/><path id="Shape" d="m43 6h-36c-.55228475 0-1-.44771525-1-1s.44771525-1 1-1h36c.5522847 0 1 .44771525 1 1s-.4477153 1-1 1z" fill="#e4c05c"/><path id="Shape" d="m43 10h-36c-.55228475 0-1-.44771525-1-1s.44771525-1 1-1h36c.5522847 0 1 .44771525 1 1s-.4477153 1-1 1z" fill="#e4c05c"/><circle id="Oval" cx="28" cy="36" fill="#7ed09e" r="15"/><path id="Shape" d="m37 34v4c0 .5522847-.4477153 1-1 1h-5v5c0 .5522847-.4477153 1-1 1h-2v-18h2c.5522847 0 1 .4477153 1 1v5h5c.5522847 0 1 .4477153 1 1z" fill="#df4d60"/><path id="Shape" d="m28 27v18h-2c-.5522847 0-1-.4477153-1-1v-5h-5c-.5522847 0-1-.4477153-1-1v-4c0-.5522847.4477153-1 1-1h5v-5c0-.5522847.4477153-1 1-1z" fill="#ff5364"/><path id="Shape" d="m44 0h-37c-3.71732958.00906385-6.77925814 2.92216427-6.97338106 6.6344328-.19412293 3.7122685 2.54727133 6.9288378 6.24338106 7.3255672.8.109 27.212.022 39.8.043.5410593-.0636252 1.0808081.1289456 1.4594035.5206839.3785953.3917383.5526417.9377421.4705965 1.4763161v-12c0-2.209139-1.790861-4-4-4zm-37 2h37c1.1032019.0032948 1.9967052.89679813 2 2v8h-39c-2.76142375 0-5-2.23857625-5-5s2.23857625-5 5-5z" fill="#fb7b76"/></g></svg>