<svg height="512" viewBox="0 0 51 59" width="512" xmlns="http://www.w3.org/2000/svg"><g id="002---Timesheet" fill="none"><path id="Shape" d="m42 31v26c-.0032948 1.1032019-.8967981 1.9967052-2 2h-38c-1.10320187-.0032948-1.9967052-.8967981-2-2v-48c.0032948-1.10320187.89679813-1.9967052 2-2h19.51z" fill="#84b5cb"/><circle id="Oval" cx="8" cy="16" fill="#fdd7ad" r="3"/><path id="Shape" d="m8 19c-2.209139 0-4 1.790861-4 4v3h8v-3c0-2.209139-1.790861-4-4-4z" fill="#7d6599"/><path id="Shape" d="m9 32h-5c-.55228475 0-1-.4477153-1-1s.44771525-1 1-1h5c.55228475 0 1 .4477153 1 1s-.44771525 1-1 1z" fill="#3f5c6c"/><path id="Shape" d="m18 32h-5c-.5522847 0-1-.4477153-1-1s.4477153-1 1-1h5c.5522847 0 1 .4477153 1 1s-.4477153 1-1 1z" fill="#3f5c6c"/><path id="Shape" d="m21 36h-17c-.55228475 0-1-.4477153-1-1s.44771525-1 1-1h17c.5522847 0 1 .4477153 1 1s-.4477153 1-1 1z" fill="#3f5c6c"/><rect id="Rectangle-path" fill="#35495e" height="16" rx="1" width="34" x="4" y="39"/><g fill="#26b99a"><path id="Shape" d="m12 44h-2c-.55228475 0-1-.4477153-1-1s.44771525-1 1-1h2c.5522847 0 1 .4477153 1 1s-.4477153 1-1 1z"/><path id="Shape" d="m12 52h-2c-.55228475 0-1-.4477153-1-1s.44771525-1 1-1h2c.5522847 0 1 .4477153 1 1s-.4477153 1-1 1z"/><path id="Shape" d="m8 50c-.55228475 0-1-.4477153-1-1v-4c0-.5522847.44771525-1 1-1s1 .4477153 1 1v4c0 .5522847-.44771525 1-1 1z"/><path id="Shape" d="m14 50c-.5522847 0-1-.4477153-1-1v-4c0-.5522847.4477153-1 1-1s1 .4477153 1 1v4c0 .5522847-.4477153 1-1 1z"/><path id="Shape" d="m22 44h-2c-.5522847 0-1-.4477153-1-1s.4477153-1 1-1h2c.5522847 0 1 .4477153 1 1s-.4477153 1-1 1z"/><path id="Shape" d="m22 52h-2c-.5522847 0-1-.4477153-1-1s.4477153-1 1-1h2c.5522847 0 1 .4477153 1 1s-.4477153 1-1 1z"/><path id="Shape" d="m18 50c-.5522847 0-1-.4477153-1-1v-4c0-.5522847.4477153-1 1-1s1 .4477153 1 1v4c0 .5522847-.4477153 1-1 1z"/><path id="Shape" d="m24 50c-.5522847 0-1-.4477153-1-1v-4c0-.5522847.4477153-1 1-1s1 .4477153 1 1v4c0 .5522847-.4477153 1-1 1z"/><path id="Shape" d="m32 44h-2c-.5522847 0-1-.4477153-1-1s.4477153-1 1-1h2c.5522847 0 1 .4477153 1 1s-.4477153 1-1 1z"/><path id="Shape" d="m32 52h-2c-.5522847 0-1-.4477153-1-1s.4477153-1 1-1h2c.5522847 0 1 .4477153 1 1s-.4477153 1-1 1z"/><path id="Shape" d="m28 50c-.5522847 0-1-.4477153-1-1v-4c0-.5522847.4477153-1 1-1s1 .4477153 1 1v4c0 .5522847-.4477153 1-1 1z"/><path id="Shape" d="m34 50c-.5522847 0-1-.4477153-1-1v-4c0-.5522847.4477153-1 1-1s1 .4477153 1 1v4c0 .5522847-.4477153 1-1 1z"/><path id="Shape" d="m16.02 53.006c-.5522847 0-1-.4477153-1-1s.4477153-1 1-1 1 .4477153 1 1-.4477153 1-1 1z"/><path id="Shape" d="m26.02 53.006c-.5522847 0-1-.4477153-1-1s.4477153-1 1-1 1 .4477153 1 1-.4477153 1-1 1z"/></g><path id="Shape" d="m34 1c-8.836556 0-16 7.163444-16 16s7.163444 16 16 16 16-7.163444 16-16c-.0126677-8.83130354-7.1686965-15.9873323-16-16z" fill="#90bae1"/><path id="Shape" d="m43.87 4.4c-6.94 1.11-20.49 5.31-23.33 21.26-1.6636467-2.5815173-2.5457071-5.588857-2.54-8.66 0-13.436 15.5-20.721 25.87-12.6z" fill="#b0d3f0"/><path id="Shape" d="m34 34c-9.3888407 0-17-7.6111593-17-17 0-9.38884075 7.6111593-17 17-17s17 7.61115925 17 17c-.010471 9.3845001-7.6154999 16.989529-17 17zm0-32c-8.2842712 0-15 6.71572875-15 15 0 8.2842712 6.7157288 15 15 15s15-6.7157288 15-15c-.0093685-8.28038757-6.7196124-14.99063148-15-15z" fill="#2980ba"/><path id="Shape" d="m34 30c-7.1762751-.008266-12.991734-5.8237249-13-13 0-.5522847.4477153-1 1-1s1 .4477153 1 1c.0071635 6.0721626 4.9278374 10.9928365 11 11 .5522847 0 1 .4477153 1 1s-.4477153 1-1 1z" fill="#ecf0f1"/><circle id="Oval" cx="34" cy="17" fill="#35495e" r="3"/><path id="Shape" d="m34 12c-.5522847 0-1-.4477153-1-1v-5c0-.55228475.4477153-1 1-1s1 .44771525 1 1v5c0 .5522847-.4477153 1-1 1z" fill="#393f4a"/><path id="Shape" d="m43 27c-.2651948-.0000566-.5195073-.1054506-.707-.293l-4-4c-.3789722-.3923789-.3735524-1.0160848.0121814-1.4018186s1.0094397-.3911536 1.4018186-.0121814l4 4c.2859079.2859943.3714219.7160366.216678 1.0896546-.1547439.3736179-.5192821.6172591-.923678.6173454z" fill="#393f4a"/></g></svg>