<svg height="512" viewBox="0 0 60 58" width="512" xmlns="http://www.w3.org/2000/svg"><g id="013---Euro-Down" fill="none" transform="translate(0 -1)"><path id="Shape" d="m51 31v-10c-.5215015-10.8357866-9.2062515-19.49326753-20.0436245-19.98069005s-20.2642449 7.35546874-21.7563755 18.10069005c-.06057605.501169-.48518533.8785995-.99.88h-3.21c-.55228475 0-1 .4477153-1 1v4c0 .5522847.44771525 1 1 1h3c.55228475 0 1 .4477153 1 1v6c0 .5522847-.44771525 1-1 1h-3c-.55228475 0-1 .4477153-1 1v4c0 .5522847.44771525 1 1 1h3.21c.50481467.0014005.92942395.378831.99.88 1.3108528 9.5208727 8.9224307 16.9341265 18.4745861 17.9932202 9.5521554 1.0590936 18.6027874-4.5067405 21.9674139-13.5092202.1170341-.3086693.075349-.6550993-.1115672-.927195s-.4953245-.4353002-.8254328-.436805h-4.353c-.3855726.0018232-.7357486.2251576-.9.574-2.7901061 5.7327593-8.9040517 9.0703196-15.2350289 8.3166962-6.3309773-.7536234-11.4905881-5.4331591-12.8569711-11.6606962-.0705875-.2986425-.0001475-.6131597.1910772-.8531662.1912246-.2400064.4820587-.3789251.7889228-.3768338h11.66c.5522847 0 1-.4477153 1-1v-4c0-.5522847-.4477153-1-1-1h-12c-.5522847 0-1-.4477153-1-1v-6c0-.5522847.4477153-1 1-1h12c.5522847 0 1-.4477153 1-1v-4c0-.5522847-.4477153-1-1-1h-11.66c-.3068641.0020913-.5976982-.1368274-.7889228-.3768338-.1912247-.2400065-.2616647-.5545237-.1910772-.8531662 1.6149937-7.2895596 8.3407489-12.28503379 15.7860234-11.72487988 7.4452744.56015392 13.3478664 6.50573658 13.8539766 13.95487988v10z" fill="#e64c3c"/><path id="Shape" d="m54.887 31c.196695.0003405.3749164.115972.455382.2954556.0804655.1794835.048224.3894692-.082382.5365444l-6.886 7.748c-.0948916.1069445-.231026.1681506-.374.1681506s-.2791084-.0612061-.374-.1681506l-6.886-7.748c-.130606-.1470752-.1628475-.3570609-.082382-.5365444.0804656-.1794836.258687-.2951151.455382-.2954556z" fill="#c03a2b"/><g fill="#802f34"><path id="Shape" d="m55 28c-.5522847 0-1-.4477153-1-1v-5c0-.5522847.4477153-1 1-1s1 .4477153 1 1v5c0 .5522847-.4477153 1-1 1z"/><path id="Shape" d="m55 19c-.5522847 0-1-.4477153-1-1v-1c0-.5522847.4477153-1 1-1s1 .4477153 1 1v1c0 .5522847-.4477153 1-1 1z"/><path id="Shape" d="m41 29c-.5522847 0-1-.4477153-1-1v-1c0-.5522847.4477153-1 1-1s1 .4477153 1 1v1c0 .5522847-.4477153 1-1 1z"/><path id="Shape" d="m41.02 24.006c-.5522847 0-1-.4477153-1-1s.4477153-1 1-1 1 .4477153 1 1-.4477153 1-1 1z"/><path id="Shape" d="m59 53h-3c-.5522847 0-1-.4477153-1-1s.4477153-1 1-1h3c.5522847 0 1 .4477153 1 1s-.4477153 1-1 1z"/><path id="Shape" d="m52 53h-2c-.5522847 0-1-.4477153-1-1s.4477153-1 1-1h2c.5522847 0 1 .4477153 1 1s-.4477153 1-1 1z"/><path id="Shape" d="m59 58h-12c-.5522847 0-1-.4477153-1-1s.4477153-1 1-1h12c.5522847 0 1 .4477153 1 1s-.4477153 1-1 1z"/><path id="Shape" d="m4 53h-3c-.55228475 0-1-.4477153-1-1s.44771525-1 1-1h3c.55228475 0 1 .4477153 1 1s-.44771525 1-1 1z"/><path id="Shape" d="m10 53h-2c-.55228475 0-1-.4477153-1-1s.44771525-1 1-1h2c.5522847 0 1 .4477153 1 1s-.4477153 1-1 1z"/><path id="Shape" d="m13 58h-12c-.55228475 0-1-.4477153-1-1s.44771525-1 1-1h12c.5522847 0 1 .4477153 1 1s-.4477153 1-1 1z"/></g></g></svg>