<svg height="512" viewBox="0 0 60 58" width="512" xmlns="http://www.w3.org/2000/svg"><g id="015--Dollar-Down" fill="none"><path id="Shape" d="m39.84 29.2c-1.7408705-1.2678807-3.7316292-2.1507686-5.84-2.59v-7.61c0-.5522847-.4477153-1-1-1v-7.58c3.43.97 5.99 3.57 6.39 6.72.0655392.4914559.4841946.8588474.98.86h4.03c.2835733-.0038517.5526859-.1258202.7425088-.3365236.1898228-.2107034.2831472-.4910398.2574912-.7734764-.55-6.29-5.71-11.42-12.4-12.62v-3.27c0-.55228475-.4477153-1-1-1h-4c-.5522847 0-1 .44771525-1 1v3.26c-7.09 1.27-12.44 6.95-12.44 13.74 0 6.51 5.15 12.2 11.44 13.45v4.55h-3.9c-.195349.0021901-.3715303.1179544-.4510734.296389s-.0478773.3868536.0810734.533611l5.27 6v4.75c-3.43-.97-5.99-3.57-6.39-6.72-.0655392-.4914559-.4841946-.8588474-.98-.86h-4.03c-.2835733.0038517-.5526859.1258202-.7425088.3365236-.1898228.2107034-.2831472.4910398-.2574912.7734764.55 6.29 5.71 11.42 12.4 12.62v3.27c0 .5522847.4477153 1 1 1h4c.5522847 0 1-.4477153 1-1v-3.26c7.09-1.27 12.44-6.95 12.44-13.74-.073631-4.2780047-2.1460256-8.2747659-5.6-10.8zm-13.84-10.2v6.23c-.1606738-.0529306-.3176813-.1164017-.47-.19-2.8823528-1.1834996-4.8197067-3.9277595-4.97-7.04 0-3.52 2.7-6.52 6.44-7.58v7.58c-.5522847 0-1 .4477153-1 1zm7 28.58v-5.25c2.519-2.934 1.436-1.7 4.82-5.5.1289507-.1467574.1606165-.3551764.0810734-.533611s-.2557244-.2941989-.4510734-.296389h-3.45v-3.16c3.1309477 1.0159949 5.3003385 3.871296 5.44 7.16 0 3.52-2.7 6.52-6.44 7.58z" fill="#4fba6f"/><g fill="#4c8056"><path id="Shape" d="m59 52h-7c-.5522847 0-1-.4477153-1-1s.4477153-1 1-1h7c.5522847 0 1 .4477153 1 1s-.4477153 1-1 1z"/><path id="Shape" d="m48 52h-2c-.5522847 0-1-.4477153-1-1s.4477153-1 1-1h2c.5522847 0 1 .4477153 1 1s-.4477153 1-1 1z"/><path id="Shape" d="m59 57h-16c-.5522847 0-1-.4477153-1-1s.4477153-1 1-1h16c.5522847 0 1 .4477153 1 1s-.4477153 1-1 1z"/><path id="Shape" d="m8 52h-7c-.55228475 0-1-.4477153-1-1s.44771525-1 1-1h7c.55228475 0 1 .4477153 1 1s-.44771525 1-1 1z"/><path id="Shape" d="m14 52h-2c-.5522847 0-1-.4477153-1-1s.4477153-1 1-1h2c.5522847 0 1 .4477153 1 1s-.4477153 1-1 1z"/><path id="Shape" d="m17 57h-16c-.55228475 0-1-.4477153-1-1s.44771525-1 1-1h16c.5522847 0 1 .4477153 1 1s-.4477153 1-1 1z"/><path id="Shape" d="m45.44 40c0 6.79-5.35 12.47-12.44 13.74v3.26c0 .5522847-.4477153 1-1 1h-2v-15.42l3-.25v5.25c3.74-1.06 6.44-4.06 6.44-7.58-.1396615-3.288704-2.3090523-6.1440051-5.44-7.16v-6.23c2.1083708.4392314 4.0991295 1.3221193 5.84 2.59 3.4539744 2.5252341 5.526369 6.5219953 5.6 10.8z"/><path id="Shape" d="m45.4 16.89c.025656.2824366-.0676684.562773-.2574912.7734764-.1898229.2107034-.4589355.3326719-.7425088.3365236h-4.03c-.4958054-.0011526-.9144608-.3685441-.98-.86-.4-3.15-2.96-5.75-6.39-6.72v7.58h-3v-18h2c.5522847 0 1 .44771525 1 1v3.27c6.69 1.2 11.85 6.33 12.4 12.62z"/></g><path id="Shape" d="m30 18v27.69c-.2039869.1013301-.4506775.051992-.6-.12-3.028-3.457-1.273-1.457-7.67-8.74-.1289507-.1467574-.1606165-.3551764-.0810734-.533611s.2557244-.2941989.4510734-.296389h3.9v-17c0-.5522847.4477153-1 1-1z" fill="#e64c3c"/><path id="Shape" d="m37.45 36h-3.45v-17c0-.5522847-.4477153-1-1-1h-3v27.69c.275-.138 2.462-2.837 7.82-8.86.1289507-.1467574.1606165-.3551764.0810734-.533611s-.2557244-.2941989-.4510734-.296389z" fill="#c03a2b"/><path id="Shape" d="m34 15h-8c-.5522847 0-1-.4477153-1-1s.4477153-1 1-1h8c.5522847 0 1 .4477153 1 1s-.4477153 1-1 1z" fill="#c03a2b"/></g></svg>