<svg height="512" viewBox="0 0 58 58" width="512" xmlns="http://www.w3.org/2000/svg"><g id="018---Payday" fill="none"><path id="Shape" d="m54 6h-2v4c-.0000001 3.3137084-2.6862916 5.9999998-6 5.9999998s-5.9999999-2.6862914-6-5.9999998v-4h-5v4c0 3.3137085-2.6862915 6-6 6s-6-2.6862915-6-6v-4h-5v4c-.0031396 3.0765096-2.3298079 5.6535429-5.39 5.97h-.01c-1.6872083.1695708-3.36738661-.3827073-4.62495031-1.5202308s-1.97507099-2.754061-1.97504969-4.4497692v-4h-2c-2.209139 0-4 1.790861-4 4v15h58v-15c0-2.209139-1.790861-4-4-4z" fill="#c03a2b"/><path id="Shape" d="m0 22v32c0 2.209139 1.790861 4 4 4h50c2.209139 0 4-1.790861 4-4v-32z" fill="#e4c05c"/><path id="Shape" d="m2 22v32c-.07368077 2.1319776 1.59220091 3.9213242 3.724 4h46.552c2.1317991-.0786758 3.7976808-1.8680224 3.724-4v-32z" fill="#f9eab0"/><path id="Shape" d="m56 10v12h-54v-12c-.07315488-2.13026602 1.59003163-3.9186386 3.72-4h.28v4c-.0000213 1.6957082.71748599 3.3122457 1.97504969 4.4497692s2.93774201 1.6898016 4.62495031 1.5202308h.01c3.0601921-.3164571 5.3868604-2.8934904 5.39-5.97v-4h5v4c0 3.3137085 2.6862915 6 6 6s6-2.6862915 6-6v-4h5v4c.0000001 3.3137084 2.6862916 5.9999998 6 5.9999998s5.9999999-2.6862914 6-5.9999998v-4h.28c2.1299684.0813614 3.7931549 1.86973398 3.72 4z" fill="#e64c3c"/><path id="Shape" d="m12 12c-1.1027482-.0043847-1.9956153-.8972518-2-2v-8c0-1.1045695.8954305-2 2-2s2 .8954305 2 2v8c0 1.1045695-.8954305 2-2 2z" fill="#bdc3c7"/><path id="Shape" d="m29 12c-1.1027482-.0043847-1.9956153-.8972518-2-2v-8c0-1.1045695.8954305-2 2-2s2 .8954305 2 2v8c0 1.1045695-.8954305 2-2 2z" fill="#bdc3c7"/><path id="Shape" d="m46 12c-1.1027482-.0043847-1.9956153-.8972518-2-2v-8c0-1.1045695.8954305-2 2-2s2 .8954305 2 2v8c0 1.1045695-.8954305 2-2 2z" fill="#bdc3c7"/><path id="Rectangle-path" d="m43 31h15v9h-15z" fill="#f0c419"/><path id="Rectangle-path" d="m0 40h15v9h-15z" fill="#f0c419"/><path id="Rectangle-path" d="m15 49h14v9h-14z" fill="#f3d55b"/><path id="Shape" d="m58 49v5c0 2.209139-1.790861 4-4 4h-11v-9z" fill="#f0c419"/><path id="Rectangle-path" d="m0 22h15v9h-15z" fill="#f0c419"/><g fill="#f3d55b"><path id="Rectangle-path" d="m43 31h13v9h-13z"/><path id="Rectangle-path" d="m2 40h13v9h-13z"/><path id="Shape" d="m56 49v5c.1370665 2.0585727-1.40983 3.8432817-3.467 4h-9.533v-9z"/><path id="Rectangle-path" d="m2 22h13v9h-13z"/><path id="Rectangle-path" d="m15 31h14v9h-14z"/><path id="Rectangle-path" d="m29 22h14v9h-14z"/><path id="Rectangle-path" d="m29 40h14v9h-14z"/></g><path id="Shape" d="m29 40c-3.309 0-6-2.243-6-5s2.691-5 6-5 6 2.243 6 5c0 .5522847.4477153 1 1 1s1-.4477153 1-1c0-3.86-3.589-7-8-7s-8 3.14-8 7 3.589 7 8 7c3.309 0 6 2.243 6 5s-2.691 5-6 5-6-2.243-6-5c0-.5522847-.4477153-1-1-1s-1 .4477153-1 1c0 3.86 3.589 7 8 7s8-3.14 8-7-3.589-7-8-7z" fill="#4fba6f"/><path id="Shape" d="m29 56c-.5522847 0-1-.4477153-1-1v-28c0-.5522847.4477153-1 1-1s1 .4477153 1 1v28c0 .5522847-.4477153 1-1 1z" fill="#4fba6f"/></g></svg>