<svg height="512" viewBox="0 0 58 58" width="512" xmlns="http://www.w3.org/2000/svg"><g id="021---Mailbox" fill="none"><path id="Shape" d="m56 0h-29c-10 0-10 11-10 11v19l23 21h16c1.1032019-.0032948 1.9967052-.8967981 2-2v-47c-.0032948-1.10320187-.8967981-1.9967052-2-2z" fill="#c03a2b"/><path id="Shape" d="m45 11v40h-5l-23-21v-19z" fill="#fb7b76"/><path id="Shape" d="m55 0c-10 0-10 11-10 11h-28s0-11 10-11z" fill="#e64c3c"/><path id="Shape" d="m41 8h-19c-.5522847 0-1-.44771525-1-1s.4477153-1 1-1h19c.5522847 0 1 .44771525 1 1s-.4477153 1-1 1z" fill="#fb7b76"/><rect id="Rectangle-path" fill="#e4c05c" height="28" rx="3" width="40" y="30"/><rect id="Rectangle-path" fill="#f9eab0" height="28" rx="3" width="36" x="2" y="30"/><rect id="Rectangle-path" fill="#3b97d3" height="8" rx="1" width="6" x="29" y="35"/><g fill="#b19046"><path id="Shape" d="m21 43h-14c-.55228475 0-1-.4477153-1-1s.44771525-1 1-1h14c.5522847 0 1 .4477153 1 1s-.4477153 1-1 1z"/><path id="Shape" d="m21 47h-14c-.55228475 0-1-.4477153-1-1s.44771525-1 1-1h14c.5522847 0 1 .4477153 1 1s-.4477153 1-1 1z"/><path id="Shape" d="m21 51h-14c-.55228475 0-1-.4477153-1-1s.44771525-1 1-1h14c.5522847 0 1 .4477153 1 1s-.4477153 1-1 1z"/></g><rect id="Rectangle-path" fill="#2c3e50" height="6" rx="1" width="20" x="21" y="16"/><path id="Shape" d="m54 8c-.5522847 0-1-.44771525-1-1v-2c0-.55228475.4477153-1 1-1s1 .44771525 1 1v2c0 .55228475-.4477153 1-1 1z" fill="#802f34"/><path id="Shape" d="m54 38c-.5522847 0-1-.4477153-1-1v-26c0-.5522847.4477153-1 1-1s1 .4477153 1 1v26c0 .5522847-.4477153 1-1 1z" fill="#802f34"/></g></svg>