<svg height="512" viewBox="0 0 58 58" width="512" xmlns="http://www.w3.org/2000/svg"><g id="022---Voice-Mailbox" fill="none"><path id="Shape" d="m56 0h-29c-10 0-10 11-10 11v19l23 21h16c1.1032019-.0032948 1.9967052-.8967981 2-2v-47c-.0032948-1.10320187-.8967981-1.9967052-2-2z" fill="#c03a2b"/><path id="Shape" d="m45 11v40h-5l-23-21v-19z" fill="#fb7b76"/><path id="Shape" d="m55 0c-10 0-10 11-10 11h-28s0-11 10-11z" fill="#e64c3c"/><path id="Shape" d="m41 8h-19c-.5522847 0-1-.44771525-1-1s.4477153-1 1-1h19c.5522847 0 1 .44771525 1 1s-.4477153 1-1 1z" fill="#fb7b76"/><rect id="Rectangle-path" fill="#2c3e50" height="6" rx="1" width="20" x="21" y="16"/><path id="Shape" d="m54 8c-.5522847 0-1-.44771525-1-1v-2c0-.55228475.4477153-1 1-1s1 .44771525 1 1v2c0 .55228475-.4477153 1-1 1z" fill="#802f34"/><path id="Shape" d="m54 38c-.5522847 0-1-.4477153-1-1v-26c0-.5522847.4477153-1 1-1s1 .4477153 1 1v26c0 .5522847-.4477153 1-1 1z" fill="#802f34"/><rect id="Rectangle-path" fill="#2980ba" height="28" rx="3" width="40" y="30"/><rect id="Rectangle-path" fill="#3b97d3" height="28" rx="3" width="36" x="2" y="30"/><path id="Shape" d="m29 37c-2.8455297-.0023361-5.4088032 1.7195299-6.4826224 4.3546689-1.0738191 2.635139-.4440853 5.6581555 1.5926224 7.6453311h-8.22c2.3875732-2.3409765 2.78417-6.0444836.9464264-8.8379359-1.8377435-2.7934523-5.3957013-3.8953552-8.49060154-2.6295473-3.09490022 1.2658078-4.86091537 4.5452048-4.21436448 7.8258524.6465509 3.2806476 3.52478916 5.6447539 6.86853962 5.6416308h18c3.8659932 0 7-3.1340068 7-7s-3.1340068-7-7-7zm-23 7c0-2.7614237 2.23857625-5 5-5 2.7614237 0 5 2.2385763 5 5s-2.2385763 5-5 5c-2.76005315-.0033061-4.99669388-2.2399468-5-5zm23 5c-2.7614237 0-5-2.2385763-5-5s2.2385763-5 5-5 5 2.2385763 5 5c-.0033061 2.7600532-2.2399468 4.9966939-5 5z" fill="#9fc9d3"/></g></svg>