<svg height="512" viewBox="0 0 58 54" width="512" xmlns="http://www.w3.org/2000/svg"><g id="031---Folder-Prefs" fill="none"><path id="Shape" d="m58 6v35c0 1.6568542-1.3431458 3-3 3h-52c-1.65685425 0-3-1.3431458-3-3v-35z" fill="#26b99a"/><path id="Shape" d="m58 3v5h-37c-1.6568542 0-3-1.34314575-3-3v-2c0-1.65685425-1.3431458-3-3-3h40c1.6568542 0 3 1.34314575 3 3z" fill="#cbb292"/><path id="Shape" d="m21 8h-21v-5c0-1.65685425 1.34314575-3 3-3h12c1.6568542 0 3 1.34314575 3 3v2c0 1.65685425 1.3431458 3 3 3z" fill="#fdd7ad"/><path id="Shape" d="m4 15c-.55228475 0-1-.4477153-1-1v-2c0-.5522847.44771525-1 1-1s1 .4477153 1 1v2c0 .5522847-.44771525 1-1 1z" fill="#81ccb8"/><path id="Shape" d="m4 41c-.55228475 0-1-.4477153-1-1v-22c0-.5522847.44771525-1 1-1s1 .4477153 1 1v22c0 .5522847-.44771525 1-1 1z" fill="#81ccb8"/><path id="Shape" d="m47 34.64v2.72c-.000766.9536137-.6746922 1.7740456-1.61 1.96l-2.95.59-1.17 2.83 1.67 2.5c.5271257.7959239.4227075 1.8526367-.25 2.53l-1.92 1.92c-.6773633.6727075-1.7340761.7771257-2.53.25l-2.5-1.67-2.83 1.17-.59 2.95c-.1859544.9353078-1.0063863 1.609234-1.96 1.61h-2.72c-.9536137-.000766-1.7740456-.6746922-1.96-1.61l-.59-2.95-2.83-1.17-2.5 1.67c-.7959239.5271257-1.8526367.4227075-2.53-.25l-1.92-1.92c-.6727075-.6773633-.7771257-1.7340761-.25-2.53 1.7-2.532 1.428-2.131 1.67-2.5l-1.17-2.83-2.95-.59c-.9353078-.1859544-1.609234-1.0063863-1.61-1.96v-2.72c.000766-.9536137.6746922-1.7740456 1.61-1.96l2.95-.59 1.17-2.83c-.238-.364.063.088-1.67-2.5-.5271257-.7959239-.4227075-1.8526367.25-2.53 2.122-2.122 2.045-2.078 2.33-2.23.659964-.3871776 1.4829906-.3638844 2.12.06l2.5 1.67 2.83-1.17.59-2.95c.1859544-.9353078 1.0063863-1.609234 1.96-1.61h2.72c.9536137.000766 1.7740456.6746922 1.96 1.61l.59 2.95 2.83 1.17 2.5-1.67c.7959239-.5271257 1.8526367-.4227075 2.53.25l1.92 1.92c.6727075.6773633.7771257 1.7340761.25 2.53l-1.67 2.5 1.17 2.83 2.95.59c.9353078.1859544 1.609234 1.0063863 1.61 1.96z" fill="#285680"/><path id="Shape" d="m29 51c-7.3197013.0004714-13.5708528-5.282171-14.7910722-12.4994483s2.9468685-14.2613233 9.8598952-16.667168c6.9130267-2.4058448 14.5529848.5291587 18.077177 6.9446163 2.5347379 4.6487901 2.4359895 10.2884501-.259942 14.8456531-2.6959315 4.5572029-7.5911682 7.359376-12.886058 7.3763469zm0-28c-6.7042714-.0010314-12.3098002 5.0965-12.9437502 11.7707313s3.9116194 12.735962 10.4961935 13.9971678c6.5845741 1.2612059 13.0483606-2.6917985 14.9255567-9.1278991 1.1362856-3.9271839.3621502-8.1600317-2.0905577-11.4308331-2.452708-3.2708014-6.2991872-5.1997606-10.3874423-5.2091669z" fill="#4482c3"/><path id="Shape" d="m29 47c-.5522847 0-1-.4477153-1-1s.4477153-1 1-1c4.9682782-.0055111 8.9944889-4.0317218 9-9 0-.5522847.4477153-1 1-1s1 .4477153 1 1c-.0071635 6.0721626-4.9278374 10.9928365-11 11z" fill="#9fc9d3"/><path id="Shape" d="m19 37c-.5522847 0-1-.4477153-1-1 .0071635-6.0721626 4.9278374-10.9928365 11-11 .5522847 0 1 .4477153 1 1s-.4477153 1-1 1c-4.9682782.0055111-8.9944889 4.0317218-9 9 0 .2652165-.1053568.5195704-.2928932.7071068s-.4418903.2928932-.7071068.2928932z" fill="#9fc9d3"/><circle id="Oval" cx="29" cy="36" fill="#4482c3" r="4"/><g fill="#7f6e5d"><path id="Shape" d="m22 6c-.4043959-.00008635-.7689341-.2437275-.923678-.61734544s-.0692299-.80366031.216678-1.08965456l2-2c.2510745-.25995658.6228779-.3642126.9725073-.27269716.3496295.09151544.6226744.3645604.7141899.71418984.0915154.34962943-.0127406.72143285-.2726972.97250732-2.18 2.18-2.168 2.293-2.707 2.293z"/><path id="Shape" d="m27 6c-.4043959-.00008635-.7689341-.2437275-.923678-.61734544s-.0692299-.80366031.216678-1.08965456l2-2c.2510745-.25995658.6228779-.3642126.9725073-.27269716.3496295.09151544.6226744.3645604.7141899.71418984.0915154.34962943-.0127406.72143285-.2726972.97250732-2.18 2.18-2.168 2.293-2.707 2.293z"/><path id="Shape" d="m32 6c-.4043959-.00008635-.7689341-.2437275-.923678-.61734544s-.0692299-.80366031.216678-1.08965456l2-2c.2510745-.25995658.6228779-.3642126.9725073-.27269716.3496295.09151544.6226744.3645604.7141899.71418984.0915154.34962943-.0127406.72143285-.2726972.97250732-2.18 2.18-2.168 2.293-2.707 2.293z"/><path id="Shape" d="m37 6c-.4043959-.00008635-.7689341-.2437275-.923678-.61734544s-.0692299-.80366031.216678-1.08965456l2-2c.2510745-.25995658.6228779-.3642126.9725073-.27269716.3496295.09151544.6226744.3645604.7141899.71418984.0915154.34962943-.0127406.72143285-.2726972.97250732-2.18 2.18-2.168 2.293-2.707 2.293z"/><path id="Shape" d="m42 6c-.4043959-.00008635-.7689341-.2437275-.923678-.61734544s-.0692299-.80366031.216678-1.08965456l2-2c.2510745-.25995658.6228779-.3642126.9725073-.27269716.3496295.09151544.6226744.3645604.7141899.71418984.0915154.34962943-.0127406.72143285-.2726972.97250732-2.18 2.18-2.168 2.293-2.707 2.293z"/><path id="Shape" d="m47 6c-.4043959-.00008635-.7689341-.2437275-.923678-.61734544s-.0692299-.80366031.216678-1.08965456l2-2c.2510745-.25995658.6228779-.3642126.9725073-.27269716.3496295.09151544.6226744.3645604.7141899.71418984.0915154.34962943-.0127406.72143285-.2726972.97250732-2.18 2.18-2.168 2.293-2.707 2.293z"/><path id="Shape" d="m52 6c-.4043959-.00008635-.7689341-.2437275-.923678-.61734544s-.0692299-.80366031.216678-1.08965456l2-2c.2510745-.25995658.6228779-.3642126.9725073-.27269716.3496295.09151544.6226744.3645604.7141899.71418984.0915154.34962943-.0127406.72143285-.2726972.97250732-2.18 2.18-2.168 2.293-2.707 2.293z"/></g></g></svg>