<svg height="512" viewBox="0 0 58 58" width="512" xmlns="http://www.w3.org/2000/svg"><g id="033---Schedule-Report" fill="none"><path id="Shape" d="m54 16v15.41l-12.64 26.59h-37.36c-2.209139 0-4-1.790861-4-4v-38z" fill="#e4c05c"/><path id="Shape" d="m52 16v15.41l-11.7 26.59h-34.6c-2.12477901-.0861334-3.77944396-1.8749604-3.7-4v-38z" fill="#f9eab0"/><path id="Shape" d="m54 16v-7c0-2.209139-1.790861-4-4-4h-46c-2.209139 0-4 1.790861-4 4v7z" fill="#c03a2b"/><path id="Shape" d="m52 16v-7c.079444-2.12503963-1.575221-3.91386661-3.7-4h-42.6c-2.12477901.08613339-3.77944396 1.87496037-3.7 4v7z" fill="#e64c3c"/><g fill="#a5a5a4"><rect id="Rectangle-path" height="10" rx="1" width="4" x="8"/><rect id="Rectangle-path" height="10" rx="1" width="4" x="25"/><rect id="Rectangle-path" height="10" rx="1" width="4" x="42"/></g><rect id="Rectangle-path" fill="#bdc3c7" height="6" rx="1" width="4" x="8" y="2"/><rect id="Rectangle-path" fill="#bdc3c7" height="6" rx="1" width="4" x="25" y="2"/><rect id="Rectangle-path" fill="#bdc3c7" height="6" rx="1" width="4" x="42" y="2"/><path id="Shape" d="m17 26v7h-9v-5c.0032948-1.1032019.89679813-1.9967052 2-2z" fill="#f3d55b"/><path id="Rectangle-path" d="m17 26h9v7h-9z" fill="#f5efca"/><path id="Rectangle-path" d="m8 33h9v7h-9z" fill="#f5efca"/><path id="Shape" d="m28.76 33-1.76 7h-10v-7z" fill="#f3d55b"/><path id="Shape" d="m17 40v7h-7c-1.10320187-.0032948-1.9967052-.8967981-2-2v-5z" fill="#f3d55b"/><path id="Shape" d="m32.11 39.67-5.31 7.33h-9.8v-7h10l.28-3.23z" fill="#f5efca"/><path id="Shape" d="m42 26-9.89 13.67-4.83-2.9 1.48-3.77h-2.76v-7z" fill="#f3d55b"/><path id="Shape" d="m31.76 29.7c-3.6198375 3.0161236-5.7268794 7.4739469-5.759639 12.1855444-.0327596 4.7115976 2.0120915 9.1982889 5.589639 12.2644556 10.368 8.887 26.41 1.442 26.41-12.15 0-13.469-15.807-21-26.24-12.3z" fill="#f29c1f"/><path id="Shape" d="m52.41 29.85-10.41 12.15-10.24-12.3c5.9993341-4.9912026 14.7238065-4.9278287 20.65.15z" fill="#cc4b4c"/><path id="Shape" d="m43.77 57.9c-4.4046735.4965127-8.8173361-.8620657-12.18-3.75l10.41-12.15z" fill="#f0c419"/><path id="Shape" d="m58.0000009 42c.002734 8.1523062-6.1273284 15.0017786-14.2300009 15.9l-1.77-15.9z" fill="#4fba6f"/><path id="Shape" d="m58.0000174 42h-16.0000174l10.41-12.15c3.5535545 3.0353188 5.5968998 7.4765792 5.5900174 12.15z" fill="#4482c3"/></g></svg>