<svg height="512" viewBox="0 0 58 58" width="512" xmlns="http://www.w3.org/2000/svg"><g id="035---Maternity-Leave" fill="none"><path id="Shape" d="m54 9v7h-54v-7c0-2.209139 1.790861-4 4-4h46c2.209139 0 4 1.790861 4 4z" fill="#c03a2b"/><path id="Shape" d="m52 9v7h-50v-7c-.07944396-2.12503963 1.57522099-3.91386661 3.7-4h42.6c2.124779.08613339 3.779444 1.87496037 3.7 4z" fill="#e64c3c"/><path id="Shape" d="m54 16v7.21l-18 30.79h-32c-2.209139 0-4-1.790861-4-4v-34z" fill="#e4c05c"/><path id="Shape" d="m52 16v7.21l-16.667 30.79h-29.633c-2.12477901-.0861334-3.77944396-1.8749604-3.7-4v-34z" fill="#f9eab0"/><rect id="Rectangle-path" fill="#a5a5a4" height="10" rx="1" width="4" x="8"/><rect id="Rectangle-path" fill="#a5a5a4" height="10" rx="1" width="4" x="25"/><rect id="Rectangle-path" fill="#a5a5a4" height="10" rx="1" width="4" x="42"/><rect id="Rectangle-path" fill="#bdc3c7" height="6" rx="1" width="4" x="8" y="2"/><rect id="Rectangle-path" fill="#bdc3c7" height="6" rx="1" width="4" x="25" y="2"/><rect id="Rectangle-path" fill="#bdc3c7" height="6" rx="1" width="4" x="42" y="2"/><path id="Rectangle-path" d="m27 40h9v7h-9z" fill="#f3d55b"/><path id="Shape" d="m58 32v24c-.0609164 1.1571095-1.0423378 2.0493108-2.2 2h-17.6c-1.1576622.0493108-2.1390836-.8428905-2.2-2v-24z" fill="#2fa8cc"/><path id="Shape" d="m56 32v24c.0488926 1.0470884-.7535642 1.9387072-1.8 2h-14.4c-1.0464358-.0612928-1.8488926-.9529116-1.8-2v-24z" fill="#67b9cc"/><path id="Rectangle-path" d="m36 28h22v4h-22z" fill="#c03a2b"/><path id="Rectangle-path" d="m38 28h18v4h-18z" fill="#e64c3c"/><path id="Shape" d="m58 28h-22c0-2.49 2.79-4.63 6.75-5.53.5317329-.1196523.9919369-.4504147 1.2748442-.9162687s.364186-1.0267331.2251558-1.5537313c-.783-2.987.4-7 2.75-7 1.965 0 3.679 3.4 2.75 7-.1370754.5297485-.0524726 1.092477.2343113 1.5585007.2867838.4660238.751008.7951392 1.2856887.9114993 2.996.686 6.73 2.562 6.73 5.53z" fill="#90bae1"/><path id="Shape" d="m56 28h-18c0-2.49 2.283-4.63 5.523-5.53.9801172-.3887876 1.5093155-1.4540849 1.227-2.47-.1364296-.6578373-.2034632-1.3281734-.2-2 0-2.76 1.1-5 2.455-5 1.886 0 2.905 3.9 2.25 7-.2797852 1.0204906.2574917 2.0872702 1.244 2.47 2.724.764 5.501 2.73 5.501 5.53z" fill="#b0d3f0"/><g fill="#2980ba"><path id="Shape" d="m54 38h-8c-.5522847 0-1-.4477153-1-1s.4477153-1 1-1h8c.5522847 0 1 .4477153 1 1s-.4477153 1-1 1z"/><path id="Shape" d="m54 43h-8c-.5522847 0-1-.4477153-1-1s.4477153-1 1-1h8c.5522847 0 1 .4477153 1 1s-.4477153 1-1 1z"/><path id="Shape" d="m54 48h-8c-.5522847 0-1-.4477153-1-1s.4477153-1 1-1h8c.5522847 0 1 .4477153 1 1s-.4477153 1-1 1z"/><path id="Shape" d="m54 53h-8c-.5522847 0-1-.4477153-1-1s.4477153-1 1-1h8c.5522847 0 1 .4477153 1 1s-.4477153 1-1 1z"/><path id="Shape" d="m52 54c-.5522847 0-1-.4477153-1-1v-17c0-.5522847.4477153-1 1-1s1 .4477153 1 1v17c0 .5522847-.4477153 1-1 1z"/></g><path id="Shape" d="m17 40v7h-7c-1.10320187-.0032948-1.9967052-.8967981-2-2v-5z" fill="#f3d55b"/><path id="Rectangle-path" d="m8 33h9v7h-9z" fill="#f5efca"/><path id="Rectangle-path" d="m27 33h9v7h-9z" fill="#f5efca"/><path id="Shape" d="m17 26v7h-9v-5c.0032948-1.1032019.89679813-1.9967052 2-2z" fill="#f3d55b"/><path id="Rectangle-path" d="m17 26h10v7h-10z" fill="#f5efca"/><path id="Rectangle-path" d="m27 26h9v7h-9z" fill="#f3d55b"/><path id="Rectangle-path" d="m17 40h10v7h-10z" fill="#f5efca"/><path id="Rectangle-path" d="m17 33h10v7h-10z" fill="#f3d55b"/></g></svg>