<svg height="512" viewBox="0 0 58 58" width="512" xmlns="http://www.w3.org/2000/svg"><g id="036---Health-Budget" fill="none"><path id="Shape" d="m42 8c0-2.209139-1.790861-4-4-4h-34c-2.209139 0-4 1.790861-4 4v46c0 2.209139 1.790861 4 4 4h34c4.649-49.977 4-40.666 4-50z" fill="#a56a43"/><path id="Shape" d="m40 8c.1003108-2.10217742-1.5173026-3.89008952-3.619-4h-30.762c-2.10169737.10991048-3.71931084 1.89782258-3.619 4v46c-.10031084 2.1021774 1.51730263 3.8900895 3.619 4h30.762c4.206-49.977 3.619-40.666 3.619-50z" fill="#cb8252"/><path id="Shape" d="m38 15v-7h-34v46h26z" fill="#f9eab0"/><path id="Shape" d="m32 3h-4c0-1.657-3.134-3-7-3s-7 1.343-7 3h-4c-.55228475 0-1 .44771525-1 1v6c0 .5522847.44771525 1 1 1h22c.5522847 0 1-.4477153 1-1v-6c0-.55228475-.4477153-1-1-1z" fill="#95a5a5"/><path id="Shape" d="m13.02 8c-.5522847 0-1-.44771525-1-1s.4477153-1 1-1 1 .44771525 1 1-.4477153 1-1 1z" fill="#ecf0f1"/><path id="Shape" d="m21.02 8c-.5522847 0-1-.44771525-1-1s.4477153-1 1-1 1 .44771525 1 1-.4477153 1-1 1z" fill="#ecf0f1"/><path id="Shape" d="m29.02 8c-.5522847 0-1-.44771525-1-1s.4477153-1 1-1 1 .44771525 1 1-.4477153 1-1 1z" fill="#ecf0f1"/><path id="Shape" d="m17.9 21.12-4.511 4.51-4.51-4.51c-.8570093-.8580761-1.11309699-2.1477392-.64895582-3.2681554.46414118-1.1204163 1.55720724-1.8511819 2.76995582-1.8518446.7966344-.0041426 1.5612861.3131103 2.121.88l.269.27.271-.27c.5592772-.5669287 1.3236449-.8842135 2.12-.88 1.2123847.0014701 2.3047116.7325317 2.7683403 1.8527671.4636286 1.1202353.2074131 2.4094145-.6493403 3.2672329z" fill="#ff5364"/><path id="Shape" d="m30.18 18h-7.18c-.5522847 0-1-.4477153-1-1s.4477153-1 1-1h7.18c.5522847 0 1 .4477153 1 1s-.4477153 1-1 1z" fill="#606060"/><path id="Shape" d="m30 22h-7c-.5522847 0-1-.4477153-1-1s.4477153-1 1-1h7c.5522847 0 1 .4477153 1 1s-.4477153 1-1 1z" fill="#606060"/><path id="Shape" d="m30 26h-9c-.5522847 0-1-.4477153-1-1s.4477153-1 1-1h9c.5522847 0 1 .4477153 1 1s-.4477153 1-1 1z" fill="#606060"/><path id="Shape" d="m17.9 36.12-4.511 4.51-4.51-4.51c-.8570093-.8580761-1.11309699-2.1477392-.64895582-3.2681554.46414118-1.1204163 1.55720724-1.8511819 2.76995582-1.8518446.7966344-.0041426 1.5612861.3131103 2.121.88l.269.27.271-.27c.5592772-.5669287 1.3236449-.8842135 2.12-.88 1.2123847.0014701 2.3047116.7325317 2.7683403 1.8527671.4636286 1.1202353.2074131 2.4094145-.6493403 3.2672329z" fill="#ff5364"/><path id="Shape" d="m29.51 33h-6.51c-.5522847 0-1-.4477153-1-1s.4477153-1 1-1h6.51c.5522847 0 1 .4477153 1 1s-.4477153 1-1 1z" fill="#606060"/><path id="Shape" d="m30 37h-7c-.5522847 0-1-.4477153-1-1s.4477153-1 1-1h7c.5522847 0 1 .4477153 1 1s-.4477153 1-1 1z" fill="#606060"/><path id="Shape" d="m30 41h-9c-.5522847 0-1-.4477153-1-1s.4477153-1 1-1h9c.5522847 0 1 .4477153 1 1s-.4477153 1-1 1z" fill="#606060"/><path id="Shape" d="m58 33v22c0 1.6568542-1.3431458 3-3 3h-22c-1.6568542 0-3-1.3431458-3-3v-22z" fill="#2980ba"/><path id="Shape" d="m55 15h-22c-1.6568542 0-3 1.3431458-3 3v19h28v-19c0-1.6568542-1.3431458-3-3-3zm-1 9c0 .5522847-.4477153 1-1 1h-18c-.5522847 0-1-.4477153-1-1v-4c0-.5522847.4477153-1 1-1h18c.5522847 0 1 .4477153 1 1z" fill="#2980ba"/><path id="Shape" d="m56 33v22c.1110012 1.5359404-1.0361735 2.874534-2.571 3h-18.858c-1.5348265-.125466-2.6820012-1.4640596-2.571-3v-22z" fill="#3b97d3"/><path id="Shape" d="m53.429 15h-18.858c-1.5348265.125466-2.6820012 1.4640596-2.571 3v11h24v-11c.1110012-1.5359404-1.0361735-2.874534-2.571-3zm-.858 9c.0351522.5113695-.3462775.9564451-.857 1h-15.428c-.5107225-.0435549-.8921522-.4886305-.857-1v-4c-.0351522-.5113695.3462775-.9564451.857-1h15.428c.5107225.0435549.8921522.4886305.857 1z" fill="#3b97d3"/><rect id="Rectangle-path" fill="#26b99a" height="6" rx="1" width="20" x="34" y="19"/><path id="Rectangle-path" d="m30 29h28v4h-28z" fill="#84b5cb"/><path id="Rectangle-path" d="m32 29h24v4h-24z" fill="#9fc9d3"/><g fill="#67b9cc"><rect id="Rectangle-path" height="4" rx="1" width="4" x="34" y="37"/><rect id="Rectangle-path" height="4" rx="1" width="4" x="42" y="37"/><rect id="Rectangle-path" height="4" rx="1" width="4" x="50" y="37"/><rect id="Rectangle-path" height="4" rx="1" width="4" x="34" y="44"/><rect id="Rectangle-path" height="4" rx="1" width="4" x="42" y="44"/></g><rect id="Rectangle-path" fill="#f3d55b" height="11" rx="1" width="4" x="50" y="44"/><rect id="Rectangle-path" fill="#67b9cc" height="4" rx="1" width="4" x="34" y="51"/><rect id="Rectangle-path" fill="#67b9cc" height="4" rx="1" width="4" x="42" y="51"/></g></svg>