<svg height="512" viewBox="0 0 58 55" width="512" xmlns="http://www.w3.org/2000/svg"><g id="039---User-report" fill="none" fill-rule="evenodd"><path id="Shape" d="m18.8 7.95c-8.79.32-9.71 6.85-9.8 7.85v5.2c.73221055.0522445 1.4669606.058924 2.2.02 2.9352215.1785981 5.8478453-.6119211 8.29-2.25 1.9385071-1.1134088 3.5068758-2.7721935 4.51-4.77.9 2.713 3.138 6.294 6 7v-5.26c-.43-4.34-4.156-8.097-11.2-7.79z" fill="#cb8252"/><path id="Shape" d="m54 47c2.209139 0 4-1.790861 4-4v-39c0-2.209139-1.790861-4-4-4h-46c-2.209139 0-4 1.790861-4 4v39c-.00087103 1.6449599 1.00760823 3.1219453 2.54 3.72 31.669.336 20.927.28 47.46.28z" fill="#5d4c72"/><path id="Shape" d="m26.56 43.15c.509.454.43.361 8.84 5.3 2.1843565 1.0525998 3.5804567 3.2553356 3.6 5.68v.87h-39v-.87c.03350787-2.4230357 1.42477243-4.6220066 3.6-5.69.2-.109 2.162-1.264 7.84-4.6.3860189-.205264.7453741-.4571486 1.07-.75z" fill="#2980ba"/><path id="Shape" d="m31 23.2v3.57c-.0004662.5479419-.2600418 1.0633849-.7 1.39l-.59.47-.2.71c-.7584812 2.3421548-2.0725545 4.4659443-3.83 6.19l-.68.67v3.67c.0104554.9368317.3303955 1.8439147.91 2.58l.02.3c-.1299543.0320807-.2416192.1149289-.31.23-2.8 4.968-7.953 5.123-11.02 1.68-1.153-1.289-1.083-1.93-1.61-1.93l.13-.32c.567488-.7253265.8771275-1.6190587.88-2.54v-3.67l-.68-.67c-1.7597964-1.7221746-3.0742514-3.846581-3.83-6.19l-.2-.71-.59-.47c-.43995817-.3266151-.69953379-.8420581-.7-1.39v-3.57c.22903769-.6188635.56779082-1.1913563 1-1.69v-.51s.43.04 1.16.04c2.92 0 10.63-.62 13.84-7.04 0 0 1.51 4.54 4.54 6.38.4513531.281546.9439765.4907423 1.46.62v.51c.4321736.4986693.7709227 1.0711554 1 1.69z" fill="#fdd7ad"/><path id="Shape" d="m19.5 47s-3.75 1-4.69 4c-2.5123206-1.7950815-3.4638784-5.0800246-2.3-7.94.0675729-.1834148.2349237-.3113629.4296391-.3284808.1947153-.0171178.381823.0796691.4803609.2484808.81 1.46 2.73 4.02 6.08 4.02z" fill="#b0d3f0"/><path id="Shape" d="m24.23 51c-.94-3-4.69-4-4.69-4 3.35 0 5.27-2.56 6.08-4.02.1000475-.1666324.2864023-.2615747.4800157-.2445537s.3605447.1430213.4299843.3245537c1.1638784 2.8599754.2123206 6.1449185-2.3 7.94z" fill="#b0d3f0"/><g fill-rule="nonzero"><path id="Shape" d="m34 32h2c.5522847 0 1 .4477153 1 1v9h-4v-9c0-.5522847.4477153-1 1-1z" fill="#fac176"/><path id="Shape" d="m42 17h2c.5522847 0 1 .4477153 1 1v24h-4v-24c0-.5522847.4477153-1 1-1z" fill="#84b5cb"/><path id="Shape" d="m50 8h2c.5522847 0 1 .44771525 1 1v33h-4v-33c0-.55228475.4477153-1 1-1z" fill="#fb7b76"/><path id="Shape" d="m55 43h-24c-.5522847 0-1-.4477153-1-1s.4477153-1 1-1h24c.5522847 0 1 .4477153 1 1s-.4477153 1-1 1z" fill="#3d324c"/></g><path id="Shape" d="m18.8 7.95c-8.79.32-9.71 6.85-9.8 7.85v5.2c.73221055.0522445 1.4669606.058924 2.2.02 2.9352215.1785981 5.8478453-.6119211 8.29-2.25 1.9385071-1.1134088 3.5068758-2.7721935 4.51-4.77.9 2.713 3.138 6.294 6 7v-5.26c-.43-4.34-4.156-8.097-11.2-7.79z" fill="#cb8252"/></g></svg>