<svg height="512" viewBox="0 0 59 60" width="512" xmlns="http://www.w3.org/2000/svg"><g id="040---Information" fill="none"><path id="Shape" d="m39 10c-.5522847 0-1-.44771525-1-1v-3c0-2.209139-1.790861-4-4-4h-10c-2.209139 0-4 1.790861-4 4v3c0 .55228475-.4477153 1-1 1s-1-.44771525-1-1v-3c.0033074-3.31233757 2.6876624-5.99669262 6-6h10c3.3123376.00330738 5.9966926 2.68766243 6 6v3c0 .55228475-.4477153 1-1 1z" fill="#805333"/><path id="Shape" d="m53.15 57.12c0 .0055228-.0044772.01-.01.01-1.4404157 1.2078674-3.2601753 1.86992-5.14 1.87h-38c-4.418278 0-8-3.581722-8-8v-12.71l51-.29z" fill="#603e26"/><path id="Shape" d="m51.15 57.12s0 .01-.009.01c-1.2913302 1.1935581-2.9825839 1.860642-4.741 1.87h-35.026c-4.074 0-7.374-3.58-7.374-8v-12.71l47.012-.29z" fill="#805333"/><path id="Shape" d="m54.28 39.75c2.3189365-1.4599421 3.724173-4.0097664 3.72-6.75v-16c0-4.418278-3.581722-8-8-8h-42c-4.418278 0-8 3.581722-8 8v16c0 4.418278 3.581722 8 8 8 37.473 0 27.126.268 46.28-1.25z" fill="#805333"/><path id="Shape" d="m52.537 39.75c2.2000212-1.5384702 3.4965462-4.065627 3.463-6.75v-16c.1479193-4.2641635-3.1841542-7.84318979-7.448-8h-39.1c-4.26542888.1546616-7.59989093 3.734331-7.452 8v16c-.1451333 4.2631223 3.18539159 7.8404852 7.448 8 34.869 0 25.26.268 43.089-1.25z" fill="#a56a43"/><rect id="Rectangle-path" fill="#f29c1f" height="10" rx="1" width="6" x="26" y="36"/><rect id="Rectangle-path" fill="#f0c419" height="10" rx="1" width="4" x="27" y="36"/><path id="Shape" d="m10 14h-3c-.55228475 0-1-.4477153-1-1s.44771525-1 1-1h3c.5522847 0 1 .4477153 1 1s-.4477153 1-1 1z" fill="#fac176"/><path id="Shape" d="m49 14h-35c-.5522847 0-1-.4477153-1-1s.4477153-1 1-1h35c.5522847 0 1 .4477153 1 1s-.4477153 1-1 1z" fill="#fac176"/><path id="Shape" d="m6 53c-.55228475 0-1-.4477153-1-1v-7c0-.5522847.44771525-1 1-1s1 .4477153 1 1v7c0 .5522847-.44771525 1-1 1z" fill="#a56a43"/><circle id="Oval" cx="47" cy="48" fill="#84b5cb" r="11"/><path id="Shape" d="m47 60c-6.627417 0-12-5.372583-12-12s5.372583-12 12-12 12 5.372583 12 12c-.0071648 6.624447-5.375553 11.9928352-12 12zm0-22c-5.5228475 0-10 4.4771525-10 10s4.4771525 10 10 10 10-4.4771525 10-10c-.0060624-5.5203344-4.4796656-9.9939376-10-10z" fill="#2980ba"/><g fill="#fff"><path id="Shape" d="m47 55c-.5522847 0-1-.4477153-1-1v-9c0-.5522847.4477153-1 1-1s1 .4477153 1 1v9c0 .5522847-.4477153 1-1 1z"/><path id="Shape" d="m47 43c-.5522847 0-1-.4477153-1-1v-1c0-.5522847.4477153-1 1-1s1 .4477153 1 1v1c0 .5522847-.4477153 1-1 1z"/></g></g></svg>