<svg height="512" viewBox="0 0 58 58" width="512" xmlns="http://www.w3.org/2000/svg"><g id="004---Locked-Folder" fill="none"><path id="Shape" d="m0 8v33c0 1.6568542 1.34314575 3 3 3h52c1.6568542 0 3-1.3431458 3-3v-33" fill="#2980ba"/><path id="Shape" d="m58 3v5h-37c-1.6568542 0-3-1.34314575-3-3v-2c0-1.65685425-1.3431458-3-3-3h40c1.6568542 0 3 1.34314575 3 3z" fill="#84b5cb"/><path id="Shape" d="m21 8h-21v-5c0-1.65685425 1.34314575-3 3-3h12c1.6568542 0 3 1.34314575 3 3v2c0 1.65685425 1.3431458 3 3 3z" fill="#9fc9d3"/><path id="Shape" d="m35 23c-.5522847 0-1-.4477153-1-1v-4c0-2.7614237-2.2385763-5-5-5s-5 2.2385763-5 5v4c0 .5522847-.4477153 1-1 1s-1-.4477153-1-1v-4c0-3.8659932 3.1340068-7 7-7s7 3.1340068 7 7v4c0 .2652165-.1053568.5195704-.2928932.7071068s-.4418903.2928932-.7071068.2928932z" fill="#bdc3c7"/><path id="Shape" d="m4 15c-.55228475 0-1-.4477153-1-1v-2c0-.5522847.44771525-1 1-1s1 .4477153 1 1v2c0 .5522847-.44771525 1-1 1z" fill="#9fc9d3"/><path id="Shape" d="m4 41c-.55228475 0-1-.4477153-1-1v-22c0-.5522847.44771525-1 1-1s1 .4477153 1 1v22c0 .5522847-.44771525 1-1 1z" fill="#9fc9d3"/><g fill="#d1d4d1"><path id="Shape" d="m22 6c-.4043959-.00008635-.7689341-.2437275-.923678-.61734544s-.0692299-.80366031.216678-1.08965456l2-2c.2510745-.25995658.6228779-.3642126.9725073-.27269716.3496295.09151544.6226744.3645604.7141899.71418984.0915154.34962943-.0127406.72143285-.2726972.97250732-2.18 2.18-2.168 2.293-2.707 2.293z"/><path id="Shape" d="m27 6c-.4043959-.00008635-.7689341-.2437275-.923678-.61734544s-.0692299-.80366031.216678-1.08965456l2-2c.2510745-.25995658.6228779-.3642126.9725073-.27269716.3496295.09151544.6226744.3645604.7141899.71418984.0915154.34962943-.0127406.72143285-.2726972.97250732-2.18 2.18-2.168 2.293-2.707 2.293z"/><path id="Shape" d="m32 6c-.4043959-.00008635-.7689341-.2437275-.923678-.61734544s-.0692299-.80366031.216678-1.08965456l2-2c.2510745-.25995658.6228779-.3642126.9725073-.27269716.3496295.09151544.6226744.3645604.7141899.71418984.0915154.34962943-.0127406.72143285-.2726972.97250732-2.18 2.18-2.168 2.293-2.707 2.293z"/><path id="Shape" d="m37 6c-.4043959-.00008635-.7689341-.2437275-.923678-.61734544s-.0692299-.80366031.216678-1.08965456l2-2c.2510745-.25995658.6228779-.3642126.9725073-.27269716.3496295.09151544.6226744.3645604.7141899.71418984.0915154.34962943-.0127406.72143285-.2726972.97250732-2.18 2.18-2.168 2.293-2.707 2.293z"/><path id="Shape" d="m42 6c-.4043959-.00008635-.7689341-.2437275-.923678-.61734544s-.0692299-.80366031.216678-1.08965456l2-2c.2510745-.25995658.6228779-.3642126.9725073-.27269716.3496295.09151544.6226744.3645604.7141899.71418984.0915154.34962943-.0127406.72143285-.2726972.97250732-2.18 2.18-2.168 2.293-2.707 2.293z"/><path id="Shape" d="m47 6c-.4043959-.00008635-.7689341-.2437275-.923678-.61734544s-.0692299-.80366031.216678-1.08965456l2-2c.2510745-.25995658.6228779-.3642126.9725073-.27269716.3496295.09151544.6226744.3645604.7141899.71418984.0915154.34962943-.0127406.72143285-.2726972.97250732-2.18 2.18-2.168 2.293-2.707 2.293z"/><path id="Shape" d="m52 6c-.4043959-.00008635-.7689341-.2437275-.923678-.61734544s-.0692299-.80366031.216678-1.08965456l2-2c.2510745-.25995658.6228779-.3642126.9725073-.27269716.3496295.09151544.6226744.3645604.7141899.71418984.0915154.34962943-.0127406.72143285-.2726972.97250732-2.18 2.18-2.168 2.293-2.707 2.293z"/></g><path id="Shape" d="m33 34h2c1.1032019-.0032948 1.9967052-.8967981 2-2v-9c0-.5522847-.4477153-1-1-1h-14c-.5522847 0-1 .4477153-1 1v9c.0032948 1.1032019.8967981 1.9967052 2 2h3" fill="#f0c419"/><path id="Shape" d="m34.08 41.11c-.6606697-.338683-1.0772673-1.0175829-1.08-1.76v-6.94c0-.534-.286-.7-1.29-1.7-.3899779-.3930079-.3899779-1.0269921 0-1.42.608-.608.87-.784.87-1.29h-6.58v11.35c-.0027327.7424171-.4193303 1.421317-1.08 1.76-2.9858054 1.5036762-4.883627 4.547134-4.92 7.89.1265009 4.9582581 4.1505005 8.9292522 9.11 8.99.2598115.0140002.5201885.0140002.78 0 4.9594995-.0607478 8.9834991-4.0317419 9.11-8.99-.036373-3.342866-1.9341946-6.3863238-4.92-7.89zm-4.58 12.89c-1.3807119 0-2.5-1.1192881-2.5-2.5s1.1192881-2.5 2.5-2.5 2.5 1.1192881 2.5 2.5-1.1192881 2.5-2.5 2.5z" fill="#95a5a5"/><path id="Shape" d="m33.12 41.11c-.5622667-.4065123-.8848178-1.0666168-.86-1.76v-6.94c0-.542-.25-.725-1.02-1.7-.2999173-.4258243-.2999173-.9941757 0-1.42.518-.653.69-.795.69-1.29h-5.19v11.35c.0248178.6933832-.2977333 1.3534877-.86 1.76-2.5180544 1.8269312-3.9704187 4.7803215-3.88 7.89 0 5.505 3.957 9.293 7.89 8.99 3.96-.24 7.11-4.18 7.11-8.99.0904187-3.1096785-1.3619456-6.0630688-3.88-7.89zm-3.62 12.89c-1.3807119 0-2.5-1.1192881-2.5-2.5s1.1192881-2.5 2.5-2.5 2.5 1.1192881 2.5 2.5-1.1192881 2.5-2.5 2.5z" fill="#bdc3c7"/><path id="Shape" d="m33 29h-8c-.5522847 0-1-.4477153-1-1s.4477153-1 1-1h8c.5522847 0 1 .4477153 1 1s-.4477153 1-1 1z" fill="#56595e"/></g></svg>