<svg height="512" viewBox="0 0 58 59" width="512" xmlns="http://www.w3.org/2000/svg"><g id="020---Book-meeting-room" fill="none"><path id="Shape" d="m52 0h-46c-3.3137085 0-6 2.6862915-6 6v34c0 3.3137085 2.6862915 6 6 6h11s.72 6.45-3.92 10.25c-.3474456.2680576-.4795329.731316-.3257004 1.1423013s.5576371.6736584.9957004.6476987c4.92-.34 13.18-2.38 15.25-12.04h23c3.3137085 0 6-2.6862915 6-6v-34c0-3.3137085-2.6862915-6-6-6z" fill="#14a085"/><path id="Shape" d="m29 0v46c-2.07 9.66-10.33 11.7-15.25 12.04-.4380633.0259597-.8418679-.2367134-.9957004-.6476987s-.0217452-.8742437.3257004-1.1423013c4.64-3.8 3.92-10.25 3.92-10.25h-11c-3.3137085 0-6-2.6862915-6-6v-34c0-3.3137085 2.6862915-6 6-6z" fill="#26b99a"/><path id="Shape" d="m6 5h-1c-.55228475 0-1-.44771525-1-1s.44771525-1 1-1h1c.55228475 0 1 .44771525 1 1s-.44771525 1-1 1z" fill="#fff"/><path id="Shape" d="m15 5h-5c-.55228475 0-1-.44771525-1-1s.44771525-1 1-1h5c.5522847 0 1 .44771525 1 1s-.4477153 1-1 1z" fill="#fff"/><path id="Shape" d="m44 43h-1c-.5522847 0-1-.4477153-1-1s.4477153-1 1-1h1c.5522847 0 1 .4477153 1 1s-.4477153 1-1 1z" fill="#fff"/><path id="Shape" d="m53 43h-5c-.5522847 0-1-.4477153-1-1s.4477153-1 1-1h5c.5522847 0 1 .4477153 1 1s-.4477153 1-1 1z" fill="#fff"/><rect id="Rectangle-path" fill="#805333" height="16" rx="4" width="34" x="12" y="15"/><path id="Shape" d="m44 19v8c.1221229 2.076346-1.4536223 3.8623989-3.529 4h-22.942c-2.0753777-.1376011-3.6511229-1.923654-3.529-4v-8c-.1221229-2.076346 1.4536223-3.8623989 3.529-4h22.942c2.0753777.1376011 3.6511229 1.923654 3.529 4z" fill="#a56a43"/><g fill="#603e26"><path id="Shape" d="m22 12v3h-6v-3c.0032948-1.1032019.8967981-1.9967052 2-2h2c1.1032019.0032948 1.9967052.8967981 2 2z"/><path id="Shape" d="m32 12v3h-6v-3c.0032948-1.1032019.8967981-1.9967052 2-2h2c1.1032019.0032948 1.9967052.8967981 2 2z"/><path id="Shape" d="m42 12v3h-6v-3c.0032948-1.1032019.8967981-1.9967052 2-2h2c1.1032019.0032948 1.9967052.8967981 2 2z"/><path id="Shape" d="m22 31v3c-.0032948 1.1032019-.8967981 1.9967052-2 2h-2c-1.1032019-.0032948-1.9967052-.8967981-2-2v-3z"/><path id="Shape" d="m32 31v3c-.0032948 1.1032019-.8967981 1.9967052-2 2h-2c-1.1032019-.0032948-1.9967052-.8967981-2-2v-3z"/><path id="Shape" d="m42 31v3c-.0032948 1.1032019-.8967981 1.9967052-2 2h-2c-1.1032019-.0032948-1.9967052-.8967981-2-2v-3z"/><path id="Shape" d="m12 20v6h-3c-1.10320187-.0032948-1.9967052-.8967981-2-2v-2c.0032948-1.1032019.89679813-1.9967052 2-2z"/><path id="Shape" d="m51 22v2c-.0032948 1.1032019-.8967981 1.9967052-2 2h-3v-6h3c1.1032019.0032948 1.9967052.8967981 2 2z"/></g></g></svg>