<svg height="512" viewBox="0 0 58 58" width="512" xmlns="http://www.w3.org/2000/svg"><g id="025---Folder-Preferences" fill="none"><path id="Shape" d="m58 8v46c0 2.209139-1.790861 4-4 4h-50c-2.209139 0-4-1.790861-4-4v-46z" fill="#b0d3f0"/><path id="Shape" d="m35 58h-30v-42c0-1.6568542 1.34314575-3 3-3h24c1.6568542 0 3 1.3431458 3 3z" fill="#3b97d3"/><path id="Shape" d="m41.739 23.732 2.5-1.669c.7926612-.5297936 1.8490851-.4264114 2.524.247l1.924 1.924c.6734114.6749149.7767936 1.7313388.247 2.524l-1.669 2.5 1.175 2.832 2.95.59c.9353078.1859544 1.609234 1.0063863 1.61 1.96v2.72c-.000766.9536137-.6746922 1.7740456-1.61 1.96l-2.95.59-1.172 2.829 1.669 2.5c.5297936.7926612.4264114 1.8490851-.247 2.524l-1.924 1.927c-.6749149.6734114-1.7313388.7767936-2.524.247l-2.5-1.669-2.832 1.172-.59 2.95c-.1859544.9353078-1.0063863 1.609234-1.96 1.61h-2.72c-.9536137-.000766-1.7740456-.6746922-1.96-1.61l-.59-2.95-2.829-1.172-2.5 1.669c-.7926612.5297936-1.8490851.4264114-2.524-.247l-1.927-1.924c-.6734114-.6749149-.7767936-1.7313388-.247-2.524l1.669-2.5-1.172-2.832-2.95-.59c-.9353078-.1859544-1.609234-1.0063863-1.61-1.96v-2.72c.000766-.9536137.6746922-1.7740456 1.61-1.96l2.95-.59 1.172-2.829-1.669-2.5c-.5297936-.7926612-.4264114-1.8490851.247-2.524l1.924-1.924c.6749149-.6734114 1.7313388-.7767936 2.524-.247l2.5 1.669 2.832-1.175.59-2.95c.1859544-.9353078 1.0063863-1.609234 1.96-1.61h2.72c.9536137.000766 1.7740456.6746922 1.96 1.61l.59 2.95z" fill="#285680"/><path id="Shape" d="m58 4v4h-58v-4c0-2.209139 1.790861-4 4-4h50c2.209139 0 4 1.790861 4 4z" fill="#56595e"/><path id="Shape" d="m4.02 5c-.55228475 0-1-.44771525-1-1s.44771525-1 1-1 1 .44771525 1 1-.44771525 1-1 1z" fill="#e64c3c"/><path id="Shape" d="m8.02 5c-.55228475 0-1-.44771525-1-1s.44771525-1 1-1 1 .44771525 1 1-.44771525 1-1 1z" fill="#f0c419"/><path id="Shape" d="m12.02 5c-.5522847 0-1-.44771525-1-1s.4477153-1 1-1 1 .44771525 1 1-.4477153 1-1 1z" fill="#24ae5f"/><path id="Shape" d="m53 6c-.5522847 0-1-.44771525-1-1v-2c0-.55228475.4477153-1 1-1s1 .44771525 1 1v2c0 .55228475-.4477153 1-1 1z" fill="#bdc3c7"/><path id="Shape" d="m52 4h2" fill="#bdc3c7"/><path id="Shape" d="m54 5h-2c-.5522847 0-1-.44771525-1-1s.4477153-1 1-1h2c.5522847 0 1 .44771525 1 1s-.4477153 1-1 1z" fill="#bdc3c7"/><path id="Shape" d="m46 4h2" fill="#bdc3c7"/><path id="Shape" d="m48 5h-2c-.5522847 0-1-.44771525-1-1s.4477153-1 1-1h2c.5522847 0 1 .44771525 1 1s-.4477153 1-1 1z" fill="#bdc3c7"/><path id="Shape" d="m35 51c-8.2842712 0-15-6.7157288-15-15s6.7157288-15 15-15 15 6.7157288 15 15c-.0093685 8.2803876-6.7196124 14.9906315-15 15zm0-28c-7.1797017 0-13 5.8202983-13 13s5.8202983 13 13 13 13-5.8202983 13-13c-.008266-7.1762751-5.8237249-12.991734-13-13z" fill="#4482c3"/><path id="Shape" d="m35 47c-.5522847 0-1-.4477153-1-1s.4477153-1 1-1c4.9680501-.006061 8.993939-4.0319499 9-9 0-.5522847.4477153-1 1-1s1 .4477153 1 1c-.0071635 6.0721626-4.9278374 10.9928365-11 11z" fill="#9fc9d3"/><path id="Shape" d="m25 37c-.5522847 0-1-.4477153-1-1 .0071635-6.0721626 4.9278374-10.9928365 11-11 .5522847 0 1 .4477153 1 1s-.4477153 1-1 1c-4.9680501.006061-8.993939 4.0319499-9 9 0 .5522847-.4477153 1-1 1z" fill="#9fc9d3"/><circle id="Oval" cx="35" cy="36" fill="#4482c3" r="4"/><g fill="#9fc9d3"><path id="Shape" d="m21 19h-11c-.55228475 0-1-.4477153-1-1s.44771525-1 1-1h11c.5522847 0 1 .4477153 1 1s-.4477153 1-1 1z"/><path id="Shape" d="m16 27h-6c-.55228475 0-1-.4477153-1-1s.44771525-1 1-1h6c.5522847 0 1 .4477153 1 1s-.4477153 1-1 1z"/><path id="Shape" d="m15 31h-5c-.55228475 0-1-.4477153-1-1s.44771525-1 1-1h5c.5522847 0 1 .4477153 1 1s-.4477153 1-1 1z"/><path id="Shape" d="m13 35h-3c-.55228475 0-1-.4477153-1-1s.44771525-1 1-1h3c.5522847 0 1 .4477153 1 1s-.4477153 1-1 1z"/><path id="Shape" d="m13 39h-3c-.55228475 0-1-.4477153-1-1s.44771525-1 1-1h3c.5522847 0 1 .4477153 1 1s-.4477153 1-1 1z"/><path id="Shape" d="m15 43h-5c-.55228475 0-1-.4477153-1-1s.44771525-1 1-1h5c.5522847 0 1 .4477153 1 1s-.4477153 1-1 1z"/><path id="Shape" d="m16 47h-6c-.55228475 0-1-.4477153-1-1s.44771525-1 1-1h6c.5522847 0 1 .4477153 1 1s-.4477153 1-1 1z"/><path id="Shape" d="m17 51h-7c-.55228475 0-1-.4477153-1-1s.44771525-1 1-1h7c.5522847 0 1 .4477153 1 1s-.4477153 1-1 1z"/><path id="Shape" d="m21 55h-11c-.55228475 0-1-.4477153-1-1s.44771525-1 1-1h11c.5522847 0 1 .4477153 1 1s-.4477153 1-1 1z"/><path id="Shape" d="m16 23h-6c-.55228475 0-1-.4477153-1-1s.44771525-1 1-1h6c.5522847 0 1 .4477153 1 1s-.4477153 1-1 1z"/></g></g></svg>