<svg height="512" viewBox="0 0 58 58" width="512" xmlns="http://www.w3.org/2000/svg"><g id="028---Time-Prefs" fill="none"><circle id="Oval" cx="28" cy="28" fill="#285680" r="28"/><path id="Shape" d="m40.4 7.47c-11.52 5.04-27.68 14.76-33.86 31.25-7.856-15.66 3.436-34.72 21.46-34.72 4.3746663-.01209406 8.6670105 1.18907001 12.4 3.47z" fill="#67b9cc"/><path id="Shape" d="m52 28c-.0179018 8.3875324-4.4086004 16.158578-11.5838655 20.5021469-7.1752652 4.3435688-16.0963005 4.6308222-23.5361345.7578531-4.3230681-2.2830192-7.8569808-5.8169319-10.14-10.14-.07-.13-.14-.26-.2-.4 6.18-16.49 22.34-26.21 33.86-31.25.15.09.3.18.45.28h.01c6.9292779 4.4033068 11.1304083 12.0400115 11.14 20.25z" fill="#2fa8cc"/><path id="Shape" d="m29 4.02v2.98c0 .55228475-.4477153 1-1 1s-1-.44771525-1-1v-2.98c.883-.027 1.115-.027 2 0z" fill="#f3d55b"/><path id="Shape" d="m18 10.68c-.481268.2699991-1.0900908.1055725-1.37-.37l-1.48-2.56c.56-.36 1.13-.7 1.73-1.01l1.49 2.57c.2723004.48097949.1074157 1.0914986-.37 1.37z" fill="#285680"/><path id="Shape" d="m10.68 18c-.2792083.4764912-.8888752.6411458-1.37.37l-2.57-1.49c.31-.6.65-1.17 1.01-1.73l2.56 1.48c.2314397.1319512.4006596.350799.4701217.6079963.069462.2571974.0334233.53148-.1001217.7620037z" fill="#285680"/><path id="Shape" d="m8 28c0 .5522847-.44771525 1-1 1h-2.98c-.027-.881-.027-1.119 0-2h2.98c.55228475 0 1 .4477153 1 1z" fill="#f3d55b"/><g fill="#285680"><path id="Shape" d="m10.31 39.37-2.56 1.48c-.36-.56-.7-1.13-1.01-1.73l2.57-1.49c.48048773-.2761424 1.0938576-.1104877 1.37.37s.1104877 1.0938576-.37 1.37z"/><path id="Shape" d="m49.26 16.88c-2.816 1.633-2.7 1.62-3.07 1.62-.4553929.0031839-.8554212-.3017208-.9730546-.7416699-.1176335-.4399491.0768419-.903812.4730546-1.1283301l2.56-1.49c.36.56.7 1.14 1.01 1.74z"/><path id="Shape" d="m18.37 46.69-1.49 2.57c-.6-.31-1.17-.65-1.73-1.01l1.48-2.56c.1786328-.3108211.5095174-.5027321.8680127-.5034421s.6901375.1898889.87.5c.1798626.3101111.1806201.692621.0019873 1.0034421z"/><path id="Shape" d="m40.85 7.75-1.48 2.56c-.1821561.3077983-.5123484.497564-.87.5-.3579753.0014245-.6894063-.1886117-.8690104-.498274-.1796041-.3096622-.1799815-.69170948-.0009896-1.001726l1.49-2.57c.6.31 1.17.65 1.73 1.01z"/></g><path id="Shape" d="m28 23c-.5522847 0-1-.4477153-1-1v-11c0-.5522847.4477153-1 1-1s1 .4477153 1 1v11c0 .5522847-.4477153 1-1 1z" fill="#35495e"/><path id="Shape" d="m22 29h-11c-.5522847 0-1-.4477153-1-1s.4477153-1 1-1h11c.5522847 0 1 .4477153 1 1s-.4477153 1-1 1z" fill="#35495e"/><path id="Shape" d="m28 53c-12.2604382-.0005105-22.71037334-8.8939982-24.67123059-20.9966171s5.14636586-23.84070424 16.77942859-27.71242181c11.6330627-3.87171758 24.356951 1.26617447 30.039802 12.13003891 8.604 16.321-3.185 36.579-22.148 36.579zm-10.661-4.629c7.1295196 3.7152406 15.680698 3.4422355 22.5587144-.7202098 6.8780165-4.1624454 11.0864843-11.6113367 11.1022856-19.6507902 0-17.046-18.3-28.5-33.652-20.376-16.24 8.392-16.591 32.189-.009 40.747z" fill="#b0d3f0"/><path id="Shape" d="m58 38.64v2.72c-.000766.9536137-.6746922 1.7740456-1.61 1.96l-2.95.59-1.17 2.83 1.67 2.5c.5271257.7959239.4227075 1.8526367-.25 2.53l-1.92 1.92c-.6773633.6727075-1.7340761.7771257-2.53.25l-2.5-1.67-2.83 1.17-.59 2.95c-.1859544.9353078-1.0063863 1.609234-1.96 1.61h-2.72c-.9536137-.000766-1.7740456-.6746922-1.96-1.61l-.59-2.95-2.83-1.17-2.5 1.67c-.7959239.5271257-1.8526367.4227075-2.53-.25l-1.92-1.92c-.6727075-.6773633-.7771257-1.7340761-.25-2.53 1.7-2.532 1.428-2.131 1.67-2.5l-1.17-2.83-2.95-.59c-.9353078-.1859544-1.609234-1.0063863-1.61-1.96v-2.72c.000766-.9536137.6746922-1.7740456 1.61-1.96l2.95-.59 1.17-2.83c-.238-.364.063.088-1.67-2.5-.5271257-.7959239-.4227075-1.8526367.25-2.53 2.122-2.122 2.045-2.078 2.33-2.23.659964-.3871776 1.4829906-.3638844 2.12.06l2.5 1.67 2.83-1.17.59-2.95c.1859544-.9353078 1.0063863-1.609234 1.96-1.61h2.72c.9536137.000766 1.7740456.6746922 1.96 1.61l.59 2.95 2.83 1.17 2.5-1.67c.7959239-.5271257 1.8526367-.4227075 2.53.25l1.92 1.92c.6727075.6773633.7771257 1.7340761.25 2.53l-1.67 2.5 1.17 2.83 2.95.59c.9353078.1859544 1.609234 1.0063863 1.61 1.96z" fill="#547580"/><path id="Shape" d="m40 55c-7.3197013.0004714-13.5708528-5.282171-14.7910722-12.4994483s2.9468685-14.2613233 9.8598952-16.667168c6.9130267-2.4058448 14.5529848.5291587 18.077177 6.9446163 2.5347379 4.6487901 2.4359895 10.2884501-.259942 14.8456531-2.6959315 4.5572029-7.5911682 7.359376-12.886058 7.3763469zm0-28c-6.7042714-.0010314-12.3098002 5.0965-12.9437502 11.7707313s3.9116194 12.735962 10.4961935 13.9971678c6.5845741 1.2612059 13.0483606-2.6917985 14.9255567-9.1278991 1.1362856-3.9271839.3621502-8.1600317-2.0905577-11.4308331-2.452708-3.2708014-6.2991872-5.1997606-10.3874423-5.2091669z" fill="#95a5a5"/><path id="Shape" d="m40 51c-.5522847 0-1-.4477153-1-1s.4477153-1 1-1c4.9682782-.0055111 8.9944889-4.0317218 9-9 0-.5522847.4477153-1 1-1s1 .4477153 1 1c-.0071635 6.0721626-4.9278374 10.9928365-11 11z" fill="#bdc3c7"/><path id="Shape" d="m30 41c-.5522847 0-1-.4477153-1-1 .0071635-6.0721626 4.9278374-10.9928365 11-11 .5522847 0 1 .4477153 1 1s-.4477153 1-1 1c-4.9682782.0055111-8.9944889 4.0317218-9 9 0 .2652165-.1053568.5195704-.2928932.7071068s-.4418903.2928932-.7071068.2928932z" fill="#bdc3c7"/><circle id="Oval" cx="40" cy="40" fill="#95a5a5" r="4"/></g></svg>