<svg height="512" viewBox="0 0 58 52" width="512" xmlns="http://www.w3.org/2000/svg"><g id="030---Medical-File" fill="none"><path id="Shape" d="m58 6v43c0 1.6568542-1.3431458 3-3 3h-52c-1.65685425 0-3-1.3431458-3-3v-43z" fill="#26b99a"/><path id="Shape" d="m21 8h-21v-5c0-1.65685425 1.34314575-3 3-3h12c1.6568542 0 3 1.34314575 3 3v2c0 1.65685425 1.3431458 3 3 3z" fill="#fdd7ad"/><path id="Shape" d="m58 3v5h-37c-1.6568542 0-3-1.34314575-3-3v-2c0-1.65685425-1.3431458-3-3-3h40c1.6568542 0 3 1.34314575 3 3z" fill="#cbb292"/><path id="Shape" d="m4 15c-.55228475 0-1-.4477153-1-1v-2c0-.5522847.44771525-1 1-1s1 .4477153 1 1v2c0 .5522847-.44771525 1-1 1z" fill="#81ccb8"/><path id="Shape" d="m4 49c-.55228475 0-1-.4477153-1-1v-30c0-.5522847.44771525-1 1-1s1 .4477153 1 1v30c0 .5522847-.44771525 1-1 1z" fill="#81ccb8"/><path id="Shape" d="m54 49c-.5522847 0-1-.4477153-1-1v-2c0-.5522847.4477153-1 1-1s1 .4477153 1 1v2c0 .5522847-.4477153 1-1 1z" fill="#81ccb8"/><path id="Shape" d="m54 43c-.5522847 0-1-.4477153-1-1v-30c0-.5522847.4477153-1 1-1s1 .4477153 1 1v30c0 .5522847-.4477153 1-1 1z" fill="#81ccb8"/><g fill="#7f6e5d"><path id="Shape" d="m22 6c-.4043959-.00008635-.7689341-.2437275-.923678-.61734544s-.0692299-.80366031.216678-1.08965456l2-2c.2510745-.25995658.6228779-.3642126.9725073-.27269716.3496295.09151544.6226744.3645604.7141899.71418984.0915154.34962943-.0127406.72143285-.2726972.97250732-2.18 2.18-2.168 2.293-2.707 2.293z"/><path id="Shape" d="m27 6c-.4043959-.00008635-.7689341-.2437275-.923678-.61734544s-.0692299-.80366031.216678-1.08965456l2-2c.2510745-.25995658.6228779-.3642126.9725073-.27269716.3496295.09151544.6226744.3645604.7141899.71418984.0915154.34962943-.0127406.72143285-.2726972.97250732-2.18 2.18-2.168 2.293-2.707 2.293z"/><path id="Shape" d="m32 6c-.4043959-.00008635-.7689341-.2437275-.923678-.61734544s-.0692299-.80366031.216678-1.08965456l2-2c.2510745-.25995658.6228779-.3642126.9725073-.27269716.3496295.09151544.6226744.3645604.7141899.71418984.0915154.34962943-.0127406.72143285-.2726972.97250732-2.18 2.18-2.168 2.293-2.707 2.293z"/><path id="Shape" d="m37 6c-.4043959-.00008635-.7689341-.2437275-.923678-.61734544s-.0692299-.80366031.216678-1.08965456l2-2c.2510745-.25995658.6228779-.3642126.9725073-.27269716.3496295.09151544.6226744.3645604.7141899.71418984.0915154.34962943-.0127406.72143285-.2726972.97250732-2.18 2.18-2.168 2.293-2.707 2.293z"/><path id="Shape" d="m42 6c-.4043959-.00008635-.7689341-.2437275-.923678-.61734544s-.0692299-.80366031.216678-1.08965456l2-2c.2510745-.25995658.6228779-.3642126.9725073-.27269716.3496295.09151544.6226744.3645604.7141899.71418984.0915154.34962943-.0127406.72143285-.2726972.97250732-2.18 2.18-2.168 2.293-2.707 2.293z"/><path id="Shape" d="m47 6c-.4043959-.00008635-.7689341-.2437275-.923678-.61734544s-.0692299-.80366031.216678-1.08965456l2-2c.2510745-.25995658.6228779-.3642126.9725073-.27269716.3496295.09151544.6226744.3645604.7141899.71418984.0915154.34962943-.0127406.72143285-.2726972.97250732-2.18 2.18-2.168 2.293-2.707 2.293z"/><path id="Shape" d="m52 6c-.4043959-.00008635-.7689341-.2437275-.923678-.61734544s-.0692299-.80366031.216678-1.08965456l2-2c.2510745-.25995658.6228779-.3642126.9725073-.27269716.3496295.09151544.6226744.3645604.7141899.71418984.0915154.34962943-.0127406.72143285-.2726972.97250732-2.18 2.18-2.168 2.293-2.707 2.293z"/></g><path id="Shape" d="m29 16v26h-3c-.5522847 0-1-.4477153-1-1v-7c0-.5522847-.4477153-1-1-1h-7c-.5522847 0-1-.4477153-1-1v-6c0-.5522847.4477153-1 1-1h7c.5522847 0 1-.4477153 1-1v-7c0-.5522847.4477153-1 1-1z" fill="#e64c3c"/><path id="Shape" d="m42 26v6c0 .5522847-.4477153 1-1 1h-7c-.5522847 0-1 .4477153-1 1v7c0 .5522847-.4477153 1-1 1h-3v-26h3c.5522847 0 1 .4477153 1 1v7c0 .5522847.4477153 1 1 1h7c.5522847 0 1 .4477153 1 1z" fill="#c03a2b"/></g></svg>