<svg height="512" viewBox="0 0 60 59" width="512" xmlns="http://www.w3.org/2000/svg"><g id="017---Travel" fill="none"><path id="Shape" d="m48.82 14.12c-6.3423668-8.04346063-17.0965816-11.16523717-26.76-7.768-14.074-6.731-13.14-6.38-13.609-6.287l-1.194.235c-.37749622.07315993-.67960761.3562885-.77707693.7282502s.02696995.76686414.32007693 1.0157498c9.538 8.175 8.118 6.927 8.885 7.693-8.30684813 6.1733707-11.72063301 16.9765126-8.46947673 26.8022041 3.25115633 9.8256915 12.43487623 16.4605307 22.78447673 16.4607959 19.882 0 31.3-23.126 18.82-38.88z" fill="#2980ba"/><path id="Shape" d="m44.7 47.96c-10.2804916 7.9818357-25.0514711 6.3041223-33.28-3.78 1.65.15 4.23.15 4.94-1.18 1.06-2 2.12-5 7.43-3s6.36 5 10.6 6c3.7.87 9 1.75 10.31 1.96z" fill="#4fba6f"/><path id="Shape" d="m48.75 43.97c-13.17-1.38-8.71-9.6-5.36-10.66s0-6.41-1.13-8.55 0-4.28 3.37-6.42c1.5672352-.9432268 2.7099681-2.45493 3.19-4.22 6.9357335 8.7505103 6.9066979 21.1321152-.07 29.85z" fill="#4fba6f"/><path id="Shape" d="m45 5.176c-.587 0-.741-.459-3.413-1.675-.333354-.14271409-.5633294-.45470602-.6010186-.81536057-.0376891-.36065454.1228145-.71345233.4194606-.92200272.2966461-.20855038.6829463-.24017073 1.009558-.08263671 1.064241.48575901 2.0993227 1.03301677 3.1 1.639.3839844.23190299.5665589.6911309.4466197 1.12337803-.1199393.43224713-.5130417.7317371-.9616197.73262197z" fill="#e64c3c"/><path id="Shape" d="m30 59c-15.7525943-.0344495-28.80904032-12.2193025-29.93-27.932-.02429406-.3572656.14385623-.7003533.44111027-.9000254.29725405-.1996721.6784519-.2255935 1-.068.32154811.1575935.53459567.4747598.55888973.8320254.87508876 12.6669816 10.1641755 23.1595235 22.6316553 25.5637179 12.4674798 2.4041943 24.9921031-3.8818521 30.5146206-15.315137 5.5225176-11.4332849 2.6603599-25.1514707-6.9732759-33.4225809-.2936766-.22540833-.438793-.5946206-.3771915-.95966867.0616016-.36504807.3198406-.66619442.6712232-.78274949.3513827-.11655508.7384077-.02944547 1.0059683.22641816 9.5189667 8.1757786 12.9439567 21.4121176 8.5852432 33.1788376s-15.5801724 19.5776154-28.1282432 19.5791624z" fill="#e64c3c"/><path id="Shape" d="m25.042 7.778c-17.442-8.343-16.123-7.806-16.591-7.713l-1.194.235c-.37749622.07315993-.67960761.3562885-.77707693.7282502s.02696995.76686414.32007693 1.0157498c10.336 8.859 5.59 4.4 21.068 19.876l7.148 8.34c.249026.290602.6420678.4135905 1.0123237.3167707.3702558-.0968198.6527813-.3964652.7276763-.7717707.258-1.291.342-1.443.161-1.821l-7.633-15.963z" fill="#84b5cb"/><path id="Shape" d="m11.974 21.949-.007.007c-9.115.692-8.735.561-9.108.933l-.64.641c-.2510855.2521318-.34927881.6186944-.25785129.9625772.09142753.3438828.35870213.6132791.70185129.7074228l5.917 1.613 1.669 1.669 1.612 5.918c.09351.3441288.363202.6124206.7078128.7041382s.711987-.0070196.9641872-.2591382l.64-.641c.368-.368.24.025.934-9.108l.007-.007z" fill="#84b5cb"/><path id="Shape" d="m30.03 34.9c.08 1.03-1.12.87-1.77.64-.8-.29-1.6-.57-2.4-.86-1.648-.592-2.3-.421-2.82-2.22-.3787573-1.0945135-.5285223-2.2551923-.44-3.41.449-2.811 3.4-3.234 3.4-1.05s1.96 3.52 3.11 5.13c.4504356.5033825.7668336 1.1121047.92 1.77z" fill="#4fba6f"/><path id="Shape" d="m9.378 29.084c.272-.2 9.125-6.32 9.431-6.588 15.73-15.73 14.782-14.761 14.931-14.97l2.277-3.188c.6712869-.938288.5650883-2.2245183-.251-3.04-.8157422-.81615421-2.1020421-.92274664-3.041-.252-3.209 2.292-3.261 2.312-3.44 2.491-10.31 10.308-14.65 14.638-14.841 14.857l-6.466 9.29c-.29859023.3981203-.25899874.9552148.09289322 1.3071068.35189195.3518919.90898648.3914834 1.30710678.0928932z" fill="#9fc9d3"/></g></svg>