<svg height="512" viewBox="0 0 58 58" width="512" xmlns="http://www.w3.org/2000/svg"><g id="027---Calendar-Prefs" fill="none"><path id="Shape" d="m54 9v10h-54v-10c0-2.209139 1.790861-4 4-4h46c2.209139 0 4 1.790861 4 4z" fill="#c03a2b"/><path id="Shape" d="m54 16v12.64l-12.64 29.36h-37.36c-2.209139 0-4-1.790861-4-4v-38z" fill="#e4c05c"/><path id="Shape" d="m52 16v12.64l-11.7 29.36h-34.6c-2.12477901-.0861334-3.77944396-1.8749604-3.7-4v-38z" fill="#f9eab0"/><path id="Shape" d="m58 38.64v2.72c-.000766.9536137-.6746922 1.7740456-1.61 1.96l-2.95.59-1.17 2.83 1.67 2.5c.5271257.7959239.4227075 1.8526367-.25 2.53l-1.92 1.92c-.6773633.6727075-1.7340761.7771257-2.53.25l-2.5-1.67-2.83 1.17-.59 2.95c-.1859544.9353078-1.0063863 1.609234-1.96 1.61h-2.72c-.9536137-.000766-1.7740456-.6746922-1.96-1.61l-.59-2.95-2.83-1.17-2.5 1.67c-.7959239.5271257-1.8526367.4227075-2.53-.25l-1.92-1.92c-.6727075-.6773633-.7771257-1.7340761-.25-2.53 1.7-2.532 1.428-2.131 1.67-2.5l-1.17-2.83-2.95-.59c-.9353078-.1859544-1.609234-1.0063863-1.61-1.96v-2.72c.000766-.9536137.6746922-1.7740456 1.61-1.96l2.95-.59 1.17-2.83c-.238-.364.063.088-1.67-2.5-.5271257-.7959239-.4227075-1.8526367.25-2.53 2.122-2.122 2.045-2.078 2.33-2.23.659964-.3871776 1.4829906-.3638844 2.12.06l2.5 1.67 2.83-1.17.59-2.95c.1859544-.9353078 1.0063863-1.609234 1.96-1.61h2.72c.9536137.000766 1.7740456.6746922 1.96 1.61l.59 2.95 2.83 1.17 2.5-1.67c.7959239-.5271257 1.8526367-.4227075 2.53.25l1.92 1.92c.6727075.6773633.7771257 1.7340761.25 2.53l-1.67 2.5 1.17 2.83 2.95.59c.9353078.1859544 1.609234 1.0063863 1.61 1.96z" fill="#285680"/><path id="Shape" d="m52 9v7h-50v-7c-.07944396-2.12503963 1.57522099-3.91386661 3.7-4h42.6c2.124779.08613339 3.779444 1.87496037 3.7 4z" fill="#e64c3c"/><g fill="#a5a5a4"><rect id="Rectangle-path" height="10" rx="1" width="4" x="8"/><rect id="Rectangle-path" height="10" rx="1" width="4" x="25"/><rect id="Rectangle-path" height="10" rx="1" width="4" x="42"/></g><rect id="Rectangle-path" fill="#bdc3c7" height="6" rx="1" width="4" x="8" y="2"/><rect id="Rectangle-path" fill="#bdc3c7" height="6" rx="1" width="4" x="25" y="2"/><rect id="Rectangle-path" fill="#bdc3c7" height="6" rx="1" width="4" x="42" y="2"/><path id="Rectangle-path" d="m8 33h9v7h-9z" fill="#f5efca"/><path id="Shape" d="m17 40v7h-7c-1.10320187-.0032948-1.9967052-.8967981-2-2v-5z" fill="#f3d55b"/><path id="Shape" d="m27.73 46.74-.17.26h-10.56v-7h5v1.36c.000766.9536137.6746922 1.7740456 1.61 1.96l2.95.59z" fill="#f5efca"/><path id="Shape" d="m27.73 33.26-1.17 2.83-2.95.59c-.9353078.1859544-1.609234 1.0063863-1.61 1.96v1.36h-5v-7h10.56z" fill="#f3d55b"/><path id="Shape" d="m17 26v7h-9v-5c.0032948-1.1032019.89679813-1.9967052 2-2z" fill="#f3d55b"/><path id="Shape" d="m26.31 28.23c-.6727075.6773633-.7771257 1.7340761-.25 2.53l1.5 2.24h-10.56v-7h11.64c-.285.152-.206.105-2.33 2.23z" fill="#f5efca"/><path id="Shape" d="m40 55c-7.3197013.0004714-13.5708528-5.282171-14.7910722-12.4994483s2.9468685-14.2613233 9.8598952-16.667168c6.9130267-2.4058448 14.5529848.5291587 18.077177 6.9446163 2.5347379 4.6487901 2.4359895 10.2884501-.259942 14.8456531-2.6959315 4.5572029-7.5911682 7.359376-12.886058 7.3763469zm0-28c-6.7042714-.0010314-12.3098002 5.0965-12.9437502 11.7707313s3.9116194 12.735962 10.4961935 13.9971678c6.5845741 1.2612059 13.0483606-2.6917985 14.9255567-9.1278991 1.1362856-3.9271839.3621502-8.1600317-2.0905577-11.4308331-2.452708-3.2708014-6.2991872-5.1997606-10.3874423-5.2091669z" fill="#4482c3"/><path id="Shape" d="m40 51c-.5522847 0-1-.4477153-1-1s.4477153-1 1-1c4.9682782-.0055111 8.9944889-4.0317218 9-9 0-.5522847.4477153-1 1-1s1 .4477153 1 1c-.0071635 6.0721626-4.9278374 10.9928365-11 11z" fill="#9fc9d3"/><path id="Shape" d="m30 41c-.5522847 0-1-.4477153-1-1 .0071635-6.0721626 4.9278374-10.9928365 11-11 .5522847 0 1 .4477153 1 1s-.4477153 1-1 1c-4.9682782.0055111-8.9944889 4.0317218-9 9 0 .2652165-.1053568.5195704-.2928932.7071068s-.4418903.2928932-.7071068.2928932z" fill="#9fc9d3"/><circle id="Oval" cx="40" cy="40" fill="#4482c3" r="4"/></g></svg>