<svg height="512" viewBox="0 0 42 59" width="512" xmlns="http://www.w3.org/2000/svg"><g id="029---Filling-cabinet" fill="none"><path id="Shape" d="m35.28 1.24c-.424-.353 1.683-.24-27.91-.24-.522 0-.148-.19-7.37 6v47c0 .5522847.44771525 1 1 1h40c.5522847 0 1-.4477153 1-1v-47z" fill="#2980ba"/><path id="Shape" d="m42 7v47c0 .5522847-.4477153 1-1 1h-40c-.55228475 0-1-.4477153-1-1v-47z" fill="#3b97d3"/><path id="Shape" d="m40 7v47c.0232718.5249894-.3803.9709251-.905 1h-36.19c-.5227121-.0316968-.92334864-.4768485-.9-1v-47z" fill="#84b5cb"/><rect id="Rectangle-path" fill="#2980ba" height="16" rx="1" width="30" x="6" y="13"/><path id="Shape" d="m35 35c.5522847 0 1 .4477153 1 1v5h-30v-5c0-.5522847.44771525-1 1-1z" fill="#35495e"/><rect id="Rectangle-path" fill="#2980ba" height="18" rx="1" width="34" x="4" y="41"/><path id="Shape" d="m31.22 41c1.56-7.037 1.239-5.6 1.6-7.2.1108669-.4652542-.1299414-.9426462-.57-1.13-9.922-4.414-6.17-2.745-16.28-7.24-.2511706-.1112217-.5370337-.1142249-.7904855-.0083047-.2534519.1059202-.4521727.311436-.5495145.5683047-1.49 3.968-.347.922-5.63 15.01z" fill="#f5efca"/><circle id="Oval" cx="12" cy="21" fill="#95a5a5" r="2"/><circle id="Oval" cx="30" cy="21" fill="#95a5a5" r="2"/><path id="Shape" d="m28 22h-14c-.5522847 0-1-.4477153-1-1s.4477153-1 1-1h14c.5522847 0 1 .4477153 1 1s-.4477153 1-1 1z" fill="#bdc3c7"/><circle id="Oval" cx="12" cy="50" fill="#95a5a5" r="2"/><circle id="Oval" cx="30" cy="50" fill="#95a5a5" r="2"/><path id="Shape" d="m28 51h-14c-.5522847 0-1-.4477153-1-1s.4477153-1 1-1h14c.5522847 0 1 .4477153 1 1s-.4477153 1-1 1z" fill="#bdc3c7"/></g></svg>