<svg height="512" viewBox="0 0 36 58" width="512" xmlns="http://www.w3.org/2000/svg"><g id="037---Employee-Access-Card" fill="none"><rect id="Rectangle-path" fill="#894b9d" height="50" rx="4" width="36" y="8"/><path id="Shape" d="m30.444 8c2.0825156.13087056 3.6699304 1.91648902 3.556 4v42c.1139304 2.083511-1.4734844 3.8691294-3.556 4h-24.888c-2.08251555-.1308706-3.66993036-1.916489-3.556-4v-42c-.11393036-2.08351098 1.47348445-3.86912944 3.556-4z" fill="#955ba5"/><path id="Shape" d="m14.83 28.87c-.8238333.4766981-1.5417957 1.1163992-2.11 1.88 0 .0026522-.0010536.0051957-.0029289.0070711-.0018754.0018753-.0044189.0029289-.0070711.0029289-1.6904771 2.3088841-2.1633671 5.2914427-1.27 8.01 4.2194314 1.6408101 8.9005686 1.6408101 13.12 0 .8968479-2.719643.4197404-5.7052924-1.28-8.01v-.01c-.5682043-.7636008-1.2861667-1.4033019-2.11-1.88z" fill="#f18d46"/><path id="Shape" d="m23 3v8c0 2.7614237-2.2385763 5-5 5s-5-2.2385763-5-5v-8z" fill="#95a5a5"/><path id="Shape" d="m23 2v3h-10v-3c.0032948-1.10320187.8967981-1.9967052 2-2h6c1.1032019.0032948 1.9967052.89679813 2 2z" fill="#bdc3c7"/><path id="Shape" d="m18.02 12c-.5522847 0-1-.4477153-1-1s.4477153-1 1-1 1 .4477153 1 1-.4477153 1-1 1z" fill="#7f8c8d"/><g fill="#b49aca"><rect id="Rectangle-path" height="5" rx="1" width="28" x="4" y="44"/><path id="Shape" d="m15 54h-5c-.55228475 0-1-.4477153-1-1s.44771525-1 1-1h5c.5522847 0 1 .4477153 1 1s-.4477153 1-1 1z"/><path id="Shape" d="m26 54h-5c-.5522847 0-1-.4477153-1-1s.4477153-1 1-1h5c.5522847 0 1 .4477153 1 1s-.4477153 1-1 1z"/></g><circle id="Oval" cx="18" cy="25" fill="#fdd7ad" r="5"/></g></svg>